<svg xmlns="http://www.w3.org/2000/svg" width="276" height="64" fill="none" xmlns:v="https://vecta.io/nano"><path d="M28.931 31.896L48.658 19.62c4.667-2.855 6.253-9.325 3.523-14.369-2.642-5.043-8.63-6.756-13.298-3.806L4.89 22.665l24.042 9.23z" fill="#e84336"/><path d="M43.814 63.584c3.346 0 6.605-1.903 8.454-5.234 2.642-5.043 1.057-11.419-3.523-14.369L14.577 22.666c-4.667-2.855-10.568-1.142-13.298 3.806-2.642 5.043-1.057 11.419 3.523 14.369l34.081 21.315c1.585.952 3.258 1.427 4.932 1.427z" fill="#4282f2"/><path d="M77.719 63.583c1.673 0 3.346-.476 4.844-1.427l34.169-21.315-23.778-9.421-20.079 12.466c-4.667 2.855-6.253 9.326-3.523 14.369 1.761 3.426 5.02 5.329 8.366 5.329z" fill="#f9ba08"/><path d="M111.888 42.268c3.347 0 6.605-1.903 8.455-5.234 2.642-5.043 1.057-11.419-3.523-14.369L82.651 1.445C77.984-1.409 72.083.303 69.353 5.252c-2.642 5.043-1.057 11.419 3.523 14.369l34.169 21.22c1.497.952 3.17 1.427 4.843 1.427z" fill="#00a150"/><path d="M143.75 29.936h7.52v11.2a20.3 20.3 0 0 1-3.52.896c-1.174.192-2.518.288-4.032.288-2.219 0-4.096-.469-5.632-1.408-1.515-.96-2.667-2.315-3.456-4.064-.79-1.771-1.184-3.861-1.184-6.272 0-2.389.437-4.459 1.312-6.208a9.47 9.47 0 0 1 3.808-4.064c1.664-.981 3.669-1.472 6.016-1.472 1.194 0 2.325.117 3.392.352a14.23 14.23 0 0 1 3.008.992l-1.056 2.496c-.747-.363-1.6-.672-2.56-.928-.939-.256-1.91-.384-2.912-.384-1.686 0-3.126.373-4.32 1.12s-2.112 1.813-2.752 3.2c-.64 1.365-.96 2.997-.96 4.896 0 1.813.266 3.424.8 4.832.533 1.387 1.376 2.475 2.528 3.264 1.173.768 2.698 1.152 4.576 1.152l1.632-.064 1.344-.224 1.12-.256v-6.784h-4.672v-2.56zm28.947.416c0 2.56-.448 4.704-1.344 6.432s-2.187 3.029-3.872 3.904c-1.664.875-3.68 1.312-6.048 1.312h-5.984V19.152h6.624c2.176 0 4.053.427 5.632 1.28 1.6.853 2.826 2.112 3.68 3.776.874 1.643 1.312 3.691 1.312 6.144zm-3.008.096c0-2.027-.31-3.691-.928-4.992s-1.526-2.261-2.72-2.88c-1.174-.64-2.614-.96-4.32-.96h-3.424v17.92h2.848c2.858 0 4.992-.757 6.4-2.272 1.429-1.536 2.144-3.808 2.144-6.816zm15.984-.512h7.52v11.2c-1.152.405-2.325.704-3.52.896-1.173.192-2.517.288-4.032.288-2.218 0-4.096-.469-5.632-1.408-1.514-.96-2.666-2.315-3.456-4.064-.789-1.771-1.184-3.861-1.184-6.272 0-2.389.438-4.459 1.312-6.208s2.144-3.104 3.808-4.064c1.664-.981 3.67-1.472 6.016-1.472 1.195 0 2.326.117 3.392.352 1.088.235 2.091.565 3.008.992l-1.056 2.496a14.27 14.27 0 0 0-2.56-.928c-.938-.256-1.909-.384-2.912-.384-1.685 0-3.125.373-4.32 1.12s-2.112 1.813-2.752 3.2c-.64 1.365-.96 2.997-.96 4.896 0 1.813.267 3.424.8 4.832.534 1.387 1.376 2.475 2.528 3.264 1.174.768 2.699 1.152 4.576 1.152l1.632-.064 1.344-.224 1.12-.256v-6.784h-4.672v-2.56zm34.968 4c0 1.579-.309 3.008-.928 4.288-.597 1.259-1.525 2.261-2.784 3.008-1.237.725-2.805 1.088-4.704 1.088-2.688 0-4.736-.768-6.144-2.304-1.387-1.557-2.08-3.605-2.08-6.144v-14.72h2.848v14.816c0 1.856.459 3.296 1.376 4.32s2.304 1.536 4.16 1.536c1.28 0 2.315-.245 3.104-.736a4.46 4.46 0 0 0 1.728-2.08c.384-.896.576-1.92.576-3.072V19.152h2.848v14.784zm16.91 1.952c0 1.365-.32 2.528-.96 3.488-.618.939-1.504 1.664-2.656 2.176-1.13.512-2.485.768-4.064.768a20.3 20.3 0 0 1-2.304-.128 17.17 17.17 0 0 1-2.016-.352 9.31 9.31 0 0 1-1.6-.608V38.48c.747.341 1.654.651 2.72.928 1.088.277 2.198.416 3.328.416 1.046 0 1.91-.149 2.592-.448.704-.299 1.227-.725 1.568-1.28.363-.555.544-1.205.544-1.952s-.16-1.376-.48-1.888c-.298-.512-.81-.981-1.536-1.408-.725-.448-1.717-.917-2.976-1.408-.896-.363-1.685-.747-2.368-1.152-.682-.427-1.258-.907-1.728-1.44a5.39 5.39 0 0 1-1.056-1.824c-.234-.683-.352-1.472-.352-2.368 0-1.216.288-2.251.864-3.104.598-.875 1.408-1.547 2.432-2.016 1.046-.469 2.251-.704 3.616-.704 1.174 0 2.251.117 3.232.352s1.888.544 2.72.928l-.896 2.464a16.73 16.73 0 0 0-2.464-.864c-.853-.235-1.738-.352-2.656-.352-.874 0-1.61.139-2.208.416-.576.277-1.013.672-1.312 1.184-.298.491-.448 1.067-.448 1.728 0 .768.15 1.408.448 1.92s.79.971 1.472 1.376 1.59.843 2.72 1.312c1.259.491 2.315 1.024 3.168 1.6.875.555 1.536 1.227 1.984 2.016s.672 1.781.672 2.976zM254.339 42l-2.496-7.072h-8.48L240.899 42h-2.912l8.32-22.944h2.688L257.283 42h-2.944zm-5.696-16.544c-.043-.171-.139-.48-.288-.928l-.416-1.376-.32-1.12-.352 1.312-.32 1.184-.288.928-2.368 6.912h6.72l-2.368-6.912zm16.56-6.304c1.792 0 3.264.245 4.416.736 1.173.469 2.037 1.184 2.592 2.144.576.96.864 2.165.864 3.616 0 1.216-.213 2.229-.64 3.04-.405.811-.939 1.461-1.6 1.952a8.72 8.72 0 0 1-2.048 1.12L274.739 42h-3.328l-5.184-9.44h-4.128V42h-2.848V19.152h5.952zm-.16 2.496h-2.944v8.48h3.072c1.152 0 2.091-.16 2.816-.48.747-.341 1.291-.832 1.632-1.472s.512-1.44.512-2.4c0-1.003-.181-1.803-.544-2.4s-.928-1.035-1.696-1.312c-.747-.277-1.696-.416-2.848-.416z" fill="#fff"/></svg>