<svg width="5268" height="188" viewBox="0 0 5268 188" fill="none" xmlns="http://www.w3.org/2000/svg">
<path d="M70.6039 1.05332L68.5426 2.11767L52.0524 10.6251L49.9911 11.6894L50.0216 13.8727L50.4194 42.3217L23.2249 27.6944L21.133 26.5681L19.0717 27.6325L2.58145 36.1399L0.520178 37.2042L0.550704 39.3875L0.917943 65.6532L0.948468 67.8365L3.04037 68.9628L51.1537 94.8383L51.8569 145.135L51.8874 147.318L53.9712 148.444L79.0741 161.967L81.166 163.094L83.2273 162.029L99.7176 153.522L101.779 152.458L101.748 150.274L101.351 121.825L128.545 136.453L130.637 137.579L132.698 136.514L149.188 128.007L151.25 126.943L151.219 124.759L150.852 98.4937L150.821 96.3105L148.73 95.1841L100.624 69.3087L99.9211 19.0123L99.8906 16.8291L97.8068 15.7029L72.7039 2.17975L70.6039 1.05332ZM70.6804 6.52257L93.6914 18.9194L79.2622 26.3476L56.2514 13.9656L70.6804 6.52257ZM55.2361 15.5931L78.2469 27.9751L78.9734 79.9367C78.9769 80.102 79.0277 80.2648 79.1208 80.4089C79.2138 80.5531 79.3459 80.6736 79.5039 80.7586L129.186 107.479L129.523 131.547L97.6214 114.385L97.5315 114.339L80.8864 105.389C80.7035 105.29 80.4936 105.243 80.2843 105.255C80.0235 105.269 79.7813 105.374 79.6063 105.547C79.4313 105.72 79.3363 105.949 79.3404 106.188L80.0517 157.061L57.0407 144.665L56.3146 92.7325C56.3125 92.5661 56.2623 92.4018 56.1692 92.2562C56.076 92.1106 55.9431 91.9889 55.784 91.9033L6.10175 65.183L5.76514 41.1079L54.4014 67.2651C54.5605 67.3506 54.7403 67.397 54.9226 67.3997C55.105 67.4023 55.2835 67.3611 55.4402 67.2802C55.5969 67.1993 55.7262 67.0815 55.8153 66.9387C55.9043 66.7959 55.9499 66.6332 55.9474 66.4668L55.7026 48.9637L55.2361 15.5931ZM94.7527 20.5779L95.4559 70.8743L81.027 78.3247L80.3234 28.0061L94.7527 20.5779ZM21.2095 32.0374L53.6337 49.4804L53.8478 64.7928L6.77245 39.4877L21.2095 32.0374ZM96.517 72.5254L144.639 98.4084L130.201 105.851L82.08 79.9757L96.517 72.5254ZM145.692 100.059L146.028 124.134L131.599 131.578L131.263 107.51L145.692 100.059ZM81.44 107.862L96.0831 115.731L96.5573 149.649L82.1283 157.092L81.44 107.862Z" fill="#FEEBEB"/>
<path d="M291.304 4.34586L289.242 5.41021L272.752 13.9176L270.691 14.982L270.721 17.1652L271.119 45.6142L243.925 30.987L241.833 29.8607L239.772 30.925L223.281 39.4324L221.22 40.4968L221.251 42.68L221.618 68.9458L221.648 71.129L223.74 72.2553L271.853 98.1309L272.557 148.427L272.587 150.611L274.671 151.737L299.774 165.26L301.866 166.386L303.927 165.322L320.417 156.814L322.479 155.75L322.448 153.567L322.05 125.118L349.245 139.745L351.337 140.871L353.398 139.807L369.888 131.3L371.95 130.235L371.919 128.052L371.552 101.786L371.521 99.603L369.429 98.4767L321.324 72.6013L320.621 22.3049L320.59 20.1216L318.507 18.9954L293.404 5.47229L291.304 4.34586ZM291.38 9.81511L314.391 22.2119L299.962 29.6402L276.951 17.2582L291.38 9.81511ZM275.936 18.8857L298.947 31.2677L299.673 83.2293C299.677 83.3945 299.728 83.5573 299.821 83.7015C299.914 83.8456 300.046 83.9662 300.204 84.0511L349.886 110.771L350.222 134.839L318.321 117.678L318.231 117.632L301.586 108.682C301.403 108.583 301.193 108.536 300.984 108.547C300.723 108.562 300.481 108.666 300.306 108.839C300.131 109.012 300.036 109.241 300.04 109.48L300.752 160.354L277.741 147.957L277.014 96.0251C277.012 95.8586 276.962 95.6943 276.869 95.5487C276.776 95.4032 276.643 95.2814 276.484 95.1958L226.802 68.4756L226.465 44.4005L275.101 70.5576C275.26 70.6431 275.44 70.6895 275.622 70.6922C275.805 70.6949 275.983 70.6537 276.14 70.5727C276.297 70.4918 276.426 70.3741 276.515 70.2313C276.604 70.0885 276.65 69.9257 276.647 69.7593L276.402 52.2563L275.936 18.8857ZM315.452 23.8704L316.156 74.1668L301.727 81.6173L301.023 31.2987L315.452 23.8704ZM241.909 35.3299L274.334 52.7729L274.548 68.0854L227.472 42.7803L241.909 35.3299ZM317.217 75.8179L365.338 101.701L350.901 109.144L302.78 83.2682L317.217 75.8179ZM366.391 103.352L366.728 127.427L352.299 134.87L351.963 110.802L366.391 103.352ZM302.14 111.154L316.783 119.024L317.257 152.942L302.828 160.385L302.14 111.154Z" fill="#FEEBEB"/>
<path d="M512.004 7.6384L509.943 8.70275L493.452 17.2102L491.391 18.2745L491.422 20.4578L491.819 48.9068L464.625 34.2795L462.533 33.1532L460.472 34.2176L443.981 42.725L441.92 43.7893L441.951 45.9726L442.318 72.2383L442.348 74.4216L444.44 75.5479L492.554 101.423L493.257 151.72L493.287 153.903L495.371 155.029L520.474 168.552L522.566 169.679L524.627 168.614L541.117 160.107L543.179 159.043L543.148 156.859L542.75 128.41L569.945 143.038L572.037 144.164L574.098 143.1L590.588 134.592L592.65 133.528L592.619 131.345L592.252 105.079L592.221 102.896L590.129 101.769L542.024 75.8938L541.321 25.5974L541.291 23.4141L539.207 22.288L514.104 8.76483L512.004 7.6384ZM512.08 13.1077L535.091 25.5045L520.662 32.9327L497.651 20.5507L512.08 13.1077ZM496.636 22.1782L519.647 34.5602L520.373 86.5218C520.377 86.6871 520.428 86.8498 520.521 86.994C520.614 87.1382 520.746 87.2587 520.904 87.3437L570.586 114.064L570.923 138.132L539.021 120.97L538.931 120.924L522.286 111.974C522.103 111.875 521.893 111.828 521.684 111.84C521.423 111.855 521.181 111.959 521.006 112.132C520.831 112.305 520.736 112.534 520.74 112.773L521.452 163.646L498.441 151.25L497.715 99.3176C497.712 99.1511 497.662 98.9869 497.569 98.8413C497.476 98.6957 497.343 98.574 497.184 98.4884L447.502 71.7681L447.165 47.693L495.801 73.8501C495.96 73.9357 496.14 73.9821 496.323 73.9847C496.505 73.9874 496.683 73.9462 496.84 73.8653C496.997 73.7844 497.126 73.6666 497.215 73.5238C497.304 73.381 497.35 73.2183 497.347 73.0519L497.103 55.5488L496.636 22.1782ZM536.153 27.163L536.856 77.4594L522.427 84.9098L521.723 34.5912L536.153 27.163ZM462.609 38.6225L495.034 56.0655L495.248 71.3779L448.172 46.0728L462.609 38.6225ZM537.917 79.1104L586.038 104.994L571.601 112.436L523.48 86.5608L537.917 79.1104ZM587.092 106.644L587.428 130.72L572.999 138.163L572.663 114.095L587.092 106.644ZM522.84 114.447L537.483 122.316L537.957 156.234L523.528 163.677L522.84 114.447Z" fill="#FEEBEB"/>
<path d="M732.703 10.9309L730.642 11.9953L714.152 20.5027L712.09 21.567L712.121 23.7503L712.519 52.1993L685.324 37.5721L683.232 36.4458L681.171 37.5101L664.681 46.0175L662.62 47.0819L662.65 49.2651L663.017 75.5309L663.048 77.7141L665.14 78.8404L713.253 104.716L713.956 155.012L713.987 157.196L716.071 158.322L741.173 171.845L743.265 172.971L745.327 171.907L761.817 163.4L763.878 162.335L763.848 160.152L763.45 131.703L790.644 146.33L792.736 147.456L794.798 146.392L811.288 137.885L813.349 136.82L813.319 134.637L812.951 108.371L812.921 106.188L810.829 105.062L762.724 79.1864L762.021 28.89L761.99 26.7067L759.906 25.5805L734.803 12.0574L732.703 10.9309ZM732.78 16.4002L755.791 28.797L741.362 36.2253L718.351 23.8432L732.78 16.4002ZM717.335 25.4708L740.346 37.8528L741.073 89.8144C741.076 89.9796 741.127 90.1424 741.22 90.2865C741.313 90.4307 741.445 90.5513 741.603 90.6362L791.285 117.356L791.622 141.424L759.721 124.263L759.631 124.217L742.986 115.267C742.803 115.168 742.593 115.121 742.384 115.132C742.123 115.147 741.881 115.251 741.706 115.424C741.531 115.597 741.436 115.826 741.44 116.065L742.151 166.939L719.14 154.542L718.414 102.61C718.412 102.444 718.362 102.279 718.269 102.134C718.175 101.988 718.043 101.867 717.883 101.781L668.201 75.0606L667.865 50.9856L716.501 77.1427C716.66 77.2282 716.84 77.2746 717.022 77.2773C717.204 77.2799 717.383 77.2387 717.54 77.1578C717.696 77.0769 717.826 76.9591 717.915 76.8164C718.004 76.6736 718.049 76.5108 718.047 76.3444L717.802 58.8413L717.335 25.4708ZM756.852 30.4555L757.555 80.7519L743.126 88.2024L742.423 37.8838L756.852 30.4555ZM683.309 41.915L715.733 59.358L715.947 74.6704L668.872 49.3653L683.309 41.915ZM758.616 82.403L806.738 108.286L792.301 115.729L744.179 89.8533L758.616 82.403ZM807.791 109.937L808.128 134.012L793.699 141.455L793.362 117.387L807.791 109.937ZM743.539 117.739L758.182 125.609L758.657 159.527L744.228 166.97L743.539 117.739Z" fill="#FEEBEB"/>
<path d="M953.403 14.2235L951.342 15.2878L934.852 23.7952L932.79 24.8596L932.821 27.0429L933.219 55.4918L906.024 40.8646L903.932 39.7383L901.871 40.8026L885.381 49.3101L883.32 50.3744L883.35 52.5577L883.717 78.8234L883.748 81.0067L885.84 82.133L933.953 108.009L934.656 158.305L934.687 160.488L936.771 161.614L961.873 175.137L963.965 176.264L966.027 175.199L982.517 166.692L984.578 165.628L984.548 163.444L984.15 134.995L1011.34 149.623L1013.44 150.749L1015.5 149.685L1031.99 141.177L1034.05 140.113L1034.02 137.93L1033.65 111.664L1033.62 109.481L1031.53 108.354L983.424 82.4789L982.721 32.1825L982.69 29.9992L980.606 28.873L955.503 15.3499L953.403 14.2235ZM953.48 19.6927L976.491 32.0896L962.062 39.5178L939.051 27.1358L953.48 19.6927ZM938.035 28.7633L961.046 41.1453L961.773 93.1069C961.776 93.2721 961.827 93.4349 961.92 93.5791C962.013 93.7233 962.145 93.8438 962.303 93.9288L1011.99 120.649L1012.32 144.717L980.421 127.555L980.331 127.51L963.686 118.56C963.503 118.461 963.293 118.414 963.084 118.425C962.823 118.44 962.581 118.544 962.406 118.717C962.231 118.89 962.136 119.119 962.14 119.358L962.851 170.232L939.84 157.835L939.114 105.903C939.112 105.736 939.062 105.572 938.969 105.426C938.875 105.281 938.743 105.159 938.583 105.073L888.901 78.3532L888.565 54.2781L937.201 80.4352C937.36 80.5207 937.54 80.5672 937.722 80.5698C937.904 80.5725 938.083 80.5313 938.24 80.4504C938.396 80.3695 938.526 80.2517 938.615 80.1089C938.704 79.9661 938.749 79.8033 938.747 79.637L938.502 62.1339L938.035 28.7633ZM977.552 33.748L978.255 84.0444L963.826 91.4949L963.123 41.1763L977.552 33.748ZM904.009 45.2075L936.433 62.6506L936.647 77.963L889.572 52.6579L904.009 45.2075ZM979.316 85.6955L1027.44 111.579L1013 119.022L964.879 93.1459L979.316 85.6955ZM1028.49 113.23L1028.83 137.305L1014.4 144.748L1014.06 120.68L1028.49 113.23ZM964.239 121.032L978.882 128.901L979.357 162.819L964.928 170.262L964.239 121.032Z" fill="#FEEBEB"/>
<path d="M1174.1 17.5161L1172.04 18.5804L1155.55 27.0878L1153.49 28.1522L1153.52 30.3355L1153.92 58.7844L1126.72 44.1572L1124.63 43.0309L1122.57 44.0953L1106.08 52.6027L1104.02 53.667L1104.05 55.8503L1104.42 82.116L1104.45 84.2993L1106.54 85.4256L1154.65 111.301L1155.36 161.598L1155.39 163.781L1157.47 164.907L1182.57 178.43L1184.67 179.556L1186.73 178.492L1203.22 169.985L1205.28 168.92L1205.25 166.737L1204.85 138.288L1232.04 152.915L1234.14 154.042L1236.2 152.977L1252.69 144.47L1254.75 143.405L1254.72 141.222L1254.35 114.956L1254.32 112.773L1252.23 111.647L1204.12 85.7715L1203.42 35.4751L1203.39 33.2918L1201.31 32.1656L1176.2 18.6425L1174.1 17.5161ZM1174.18 22.9853L1197.19 35.3822L1182.76 42.8104L1159.75 30.4284L1174.18 22.9853ZM1158.74 32.0559L1181.75 44.4379L1182.47 96.3995C1182.48 96.5647 1182.53 96.7275 1182.62 96.8717C1182.71 97.0159 1182.85 97.1364 1183 97.2214L1232.69 123.942L1233.02 148.009L1201.12 130.848L1201.03 130.802L1184.39 121.852C1184.2 121.753 1183.99 121.706 1183.78 121.717C1183.52 121.732 1183.28 121.837 1183.11 122.01C1182.93 122.183 1182.84 122.412 1182.84 122.65L1183.55 173.524L1160.54 161.127L1159.81 109.195C1159.81 109.029 1159.76 108.865 1159.67 108.719C1159.58 108.573 1159.44 108.452 1159.28 108.366L1109.6 81.6458L1109.26 57.5707L1157.9 83.7278C1158.06 83.8133 1158.24 83.8598 1158.42 83.8624C1158.6 83.8651 1158.78 83.8239 1158.94 83.743C1159.1 83.6621 1159.23 83.5443 1159.31 83.4015C1159.4 83.2587 1159.45 83.0959 1159.45 82.9296L1159.2 65.4265L1158.74 32.0559ZM1198.25 37.0406L1198.96 87.337L1184.53 94.7875L1183.82 44.4689L1198.25 37.0406ZM1124.71 48.5001L1157.13 65.9432L1157.35 81.2556L1110.27 55.9505L1124.71 48.5001ZM1200.02 88.9881L1248.14 114.871L1233.7 122.314L1185.58 96.4385L1200.02 88.9881ZM1249.19 116.522L1249.53 140.597L1235.1 148.04L1234.76 123.973L1249.19 116.522ZM1184.94 124.324L1199.58 132.194L1200.06 166.112L1185.63 173.555L1184.94 124.324Z" fill="#FEEBEB"/>
<path d="M1394.8 20.8086L1392.74 21.873L1376.25 30.3804L1374.19 31.4447L1374.22 33.628L1374.62 62.077L1347.42 47.4498L1345.33 46.3234L1343.27 47.3878L1326.78 55.8952L1324.72 56.9595L1324.75 59.1428L1325.12 85.4085L1325.15 87.5918L1327.24 88.7181L1375.35 114.594L1376.06 164.89L1376.09 167.073L1378.17 168.2L1403.27 181.723L1405.37 182.849L1407.43 181.785L1423.92 173.277L1425.98 172.213L1425.95 170.03L1425.55 141.581L1452.74 156.208L1454.84 157.334L1456.9 156.27L1473.39 147.762L1475.45 146.698L1475.42 144.515L1475.05 118.249L1475.02 116.066L1472.93 114.939L1424.82 89.064L1424.12 38.7676L1424.09 36.5844L1422.01 35.4582L1396.9 21.9351L1394.8 20.8086ZM1394.88 26.2779L1417.89 38.6747L1403.46 46.1029L1380.45 33.7209L1394.88 26.2779ZM1379.44 35.3484L1402.45 47.7305L1403.17 99.6921C1403.18 99.8573 1403.23 100.02 1403.32 100.164C1403.41 100.308 1403.55 100.429 1403.7 100.514L1453.39 127.234L1453.72 151.302L1421.82 134.14L1421.73 134.095L1405.09 125.145C1404.9 125.046 1404.69 124.999 1404.48 125.01C1404.22 125.025 1403.98 125.129 1403.81 125.302C1403.63 125.475 1403.54 125.704 1403.54 125.943L1404.25 176.817L1381.24 164.42L1380.51 112.488C1380.51 112.321 1380.46 112.157 1380.37 112.012C1380.28 111.866 1380.14 111.744 1379.98 111.659L1330.3 84.9383L1329.96 60.8633L1378.6 87.0204C1378.76 87.1059 1378.94 87.1523 1379.12 87.155C1379.3 87.1576 1379.48 87.1164 1379.64 87.0355C1379.8 86.9546 1379.93 86.8368 1380.01 86.694C1380.1 86.5512 1380.15 86.3885 1380.15 86.2221L1379.9 68.719L1379.44 35.3484ZM1418.95 40.3332L1419.66 90.6296L1405.23 98.08L1404.52 47.7614L1418.95 40.3332ZM1345.41 51.7927L1377.83 69.2357L1378.05 84.5481L1330.97 59.243L1345.41 51.7927ZM1420.72 92.2807L1468.84 118.164L1454.4 125.607L1406.28 99.731L1420.72 92.2807ZM1469.89 119.815L1470.23 143.89L1455.8 151.333L1455.46 127.265L1469.89 119.815ZM1405.64 127.617L1420.28 135.486L1420.76 169.405L1406.33 176.848L1405.64 127.617Z" fill="#FEEBEB"/>
<path d="M1615.5 24.1012L1613.44 25.1655L1596.95 33.6729L1594.89 34.7373L1594.92 36.9205L1595.32 65.3695L1568.12 50.7423L1566.03 49.616L1563.97 50.6803L1547.48 59.1877L1545.42 60.2521L1545.45 62.4354L1545.82 88.7011L1545.85 90.8843L1547.94 92.0107L1596.05 117.886L1596.76 168.183L1596.79 170.366L1598.87 171.492L1623.97 185.015L1626.06 186.141L1628.13 185.077L1644.62 176.57L1646.68 175.505L1646.65 173.322L1646.25 144.873L1673.44 159.5L1675.54 160.627L1677.6 159.562L1694.09 151.055L1696.15 149.991L1696.12 147.807L1695.75 121.542L1695.72 119.358L1693.63 118.232L1645.52 92.3566L1644.82 42.0602L1644.79 39.8769L1642.71 38.7507L1617.6 25.2276L1615.5 24.1012ZM1615.58 29.5704L1638.59 41.9672L1624.16 49.3955L1601.15 37.0135L1615.58 29.5704ZM1600.13 38.641L1623.15 51.023L1623.87 102.985C1623.88 103.15 1623.93 103.313 1624.02 103.457C1624.11 103.601 1624.24 103.721 1624.4 103.806L1674.08 130.527L1674.42 154.594L1642.52 137.433L1642.43 137.387L1625.79 128.437C1625.6 128.338 1625.39 128.291 1625.18 128.302C1624.92 128.317 1624.68 128.422 1624.51 128.595C1624.33 128.768 1624.24 128.997 1624.24 129.236L1624.95 180.109L1601.94 167.712L1601.21 115.78C1601.21 115.614 1601.16 115.45 1601.07 115.304C1600.97 115.158 1600.84 115.037 1600.68 114.951L1551 88.2309L1550.66 64.1558L1599.3 90.3129C1599.46 90.3984 1599.64 90.4449 1599.82 90.4475C1600 90.4502 1600.18 90.409 1600.34 90.328C1600.5 90.2471 1600.63 90.1294 1600.71 89.9866C1600.8 89.8438 1600.85 89.681 1600.85 89.5147L1600.6 72.0116L1600.13 38.641ZM1639.65 43.6257L1640.35 93.9221L1625.93 101.373L1625.22 51.054L1639.65 43.6257ZM1566.11 55.0852L1598.53 72.5282L1598.75 87.8407L1551.67 62.5356L1566.11 55.0852ZM1641.42 95.5732L1689.54 121.456L1675.1 128.899L1626.98 103.024L1641.42 95.5732ZM1690.59 123.107L1690.93 147.182L1676.5 154.625L1676.16 130.558L1690.59 123.107ZM1626.34 130.91L1640.98 138.779L1641.46 172.697L1627.03 180.14L1626.34 130.91Z" fill="#FEEBEB"/>
<path d="M1856.27 1.05332L1854.21 2.11767L1837.72 10.6251L1835.66 11.6894L1835.69 13.8727L1836.09 42.3217L1808.89 27.6944L1806.8 26.5681L1804.74 27.6325L1788.25 36.1399L1786.19 37.2042L1786.22 39.3875L1786.59 65.6532L1786.62 67.8365L1788.71 68.9628L1836.82 94.8383L1837.53 145.135L1837.56 147.318L1839.64 148.444L1864.74 161.967L1866.83 163.094L1868.9 162.029L1885.39 153.522L1887.45 152.458L1887.42 150.274L1887.02 121.825L1914.21 136.453L1916.31 137.579L1918.37 136.514L1934.86 128.007L1936.92 126.943L1936.89 124.759L1936.52 98.4937L1936.49 96.3105L1934.4 95.1841L1886.29 69.3087L1885.59 19.0123L1885.56 16.8291L1883.48 15.7029L1858.37 2.17975L1856.27 1.05332ZM1856.35 6.52257L1879.36 18.9194L1864.93 26.3476L1841.92 13.9656L1856.35 6.52257ZM1840.9 15.5931L1863.92 27.9751L1864.64 79.9367C1864.65 80.102 1864.7 80.2648 1864.79 80.4089C1864.88 80.5531 1865.01 80.6736 1865.17 80.7586L1914.85 107.479L1915.19 131.547L1883.29 114.385L1883.2 114.339L1866.56 105.389C1866.37 105.29 1866.16 105.243 1865.95 105.255C1865.69 105.269 1865.45 105.374 1865.28 105.547C1865.1 105.72 1865 105.949 1865.01 106.188L1865.72 157.061L1842.71 144.665L1841.98 92.7325C1841.98 92.5661 1841.93 92.4018 1841.84 92.2562C1841.74 92.1106 1841.61 91.9889 1841.45 91.9033L1791.77 65.183L1791.43 41.1079L1840.07 67.2651C1840.23 67.3506 1840.41 67.397 1840.59 67.3997C1840.77 67.4023 1840.95 67.3611 1841.11 67.2802C1841.27 67.1993 1841.39 67.0815 1841.48 66.9387C1841.57 66.7959 1841.62 66.6332 1841.62 66.4668L1841.37 48.9637L1840.9 15.5931ZM1880.42 20.5779L1881.12 70.8743L1866.7 78.3247L1865.99 28.0061L1880.42 20.5779ZM1806.88 32.0374L1839.3 49.4804L1839.52 64.7928L1792.44 39.4877L1806.88 32.0374ZM1882.19 72.5254L1930.31 98.4084L1915.87 105.851L1867.75 79.9757L1882.19 72.5254ZM1931.36 100.059L1931.7 124.134L1917.27 131.578L1916.93 107.51L1931.36 100.059ZM1867.11 107.862L1881.75 115.731L1882.23 149.649L1867.8 157.092L1867.11 107.862Z" fill="#FEEBEB"/>
<path d="M2076.97 4.34586L2074.91 5.41021L2058.42 13.9176L2056.36 14.982L2056.39 17.1652L2056.79 45.6142L2029.59 30.987L2027.5 29.8607L2025.44 30.925L2008.95 39.4324L2006.89 40.4968L2006.92 42.68L2007.29 68.9458L2007.32 71.129L2009.41 72.2553L2057.52 98.1309L2058.23 148.427L2058.26 150.611L2060.34 151.737L2085.44 165.26L2087.53 166.386L2089.6 165.322L2106.09 156.814L2108.15 155.75L2108.12 153.567L2107.72 125.118L2134.91 139.745L2137.01 140.871L2139.07 139.807L2155.56 131.3L2157.62 130.235L2157.59 128.052L2157.22 101.786L2157.19 99.603L2155.1 98.4767L2106.99 72.6013L2106.29 22.3049L2106.26 20.1216L2104.18 18.9954L2079.07 5.47229L2076.97 4.34586ZM2077.05 9.81511L2100.06 22.2119L2085.63 29.6402L2062.62 17.2582L2077.05 9.81511ZM2061.6 18.8857L2084.62 31.2677L2085.34 83.2293C2085.35 83.3945 2085.4 83.5573 2085.49 83.7015C2085.58 83.8456 2085.71 83.9662 2085.87 84.0511L2135.55 110.771L2135.89 134.839L2103.99 117.678L2103.9 117.632L2087.25 108.682C2087.07 108.583 2086.86 108.536 2086.65 108.547C2086.39 108.562 2086.15 108.666 2085.97 108.839C2085.8 109.012 2085.7 109.241 2085.71 109.48L2086.42 160.354L2063.41 147.957L2062.68 96.0251C2062.68 95.8586 2062.63 95.6943 2062.54 95.5487C2062.44 95.4032 2062.31 95.2814 2062.15 95.1958L2012.47 68.4756L2012.13 44.4005L2060.77 70.5576C2060.93 70.6431 2061.11 70.6895 2061.29 70.6922C2061.47 70.6949 2061.65 70.6537 2061.81 70.5727C2061.97 70.4918 2062.09 70.3741 2062.18 70.2313C2062.27 70.0885 2062.32 69.9257 2062.32 69.7593L2062.07 52.2563L2061.6 18.8857ZM2101.12 23.8704L2101.82 74.1668L2087.4 81.6173L2086.69 31.2987L2101.12 23.8704ZM2027.58 35.3299L2060 52.7729L2060.22 68.0854L2013.14 42.7803L2027.58 35.3299ZM2102.89 75.8179L2151.01 101.701L2136.57 109.144L2088.45 83.2682L2102.89 75.8179ZM2152.06 103.352L2152.4 127.427L2137.97 134.87L2137.63 110.802L2152.06 103.352ZM2087.81 111.154L2102.45 119.024L2102.93 152.942L2088.5 160.385L2087.81 111.154Z" fill="#FEEBEB"/>
<path d="M2297.67 7.6384L2295.61 8.70275L2279.12 17.2102L2277.06 18.2745L2277.09 20.4578L2277.49 48.9068L2250.29 34.2795L2248.2 33.1532L2246.14 34.2176L2229.65 42.725L2227.59 43.7893L2227.62 45.9726L2227.99 72.2383L2228.02 74.4216L2230.11 75.5479L2278.22 101.423L2278.93 151.72L2278.96 153.903L2281.04 155.029L2306.14 168.552L2308.23 169.679L2310.3 168.614L2326.79 160.107L2328.85 159.043L2328.82 156.859L2328.42 128.41L2355.61 143.038L2357.71 144.164L2359.77 143.1L2376.26 134.592L2378.32 133.528L2378.29 131.345L2377.92 105.079L2377.89 102.896L2375.8 101.769L2327.69 75.8938L2326.99 25.5974L2326.96 23.4141L2324.88 22.288L2299.77 8.76483L2297.67 7.6384ZM2297.75 13.1077L2320.76 25.5045L2306.33 32.9327L2283.32 20.5507L2297.75 13.1077ZM2282.3 22.1782L2305.32 34.5602L2306.04 86.5218C2306.05 86.6871 2306.1 86.8498 2306.19 86.994C2306.28 87.1382 2306.41 87.2587 2306.57 87.3437L2356.25 114.064L2356.59 138.132L2324.69 120.97L2324.6 120.924L2307.95 111.974C2307.77 111.875 2307.56 111.828 2307.35 111.84C2307.09 111.855 2306.85 111.959 2306.67 112.132C2306.5 112.305 2306.4 112.534 2306.41 112.773L2307.12 163.646L2284.11 151.25L2283.38 99.3176C2283.38 99.1511 2283.33 98.9869 2283.24 98.8413C2283.14 98.6957 2283.01 98.574 2282.85 98.4884L2233.17 71.7681L2232.83 47.693L2281.47 73.8501C2281.63 73.9357 2281.81 73.9821 2281.99 73.9847C2282.17 73.9874 2282.35 73.9462 2282.51 73.8653C2282.67 73.7844 2282.79 73.6666 2282.88 73.5238C2282.97 73.381 2283.02 73.2183 2283.02 73.0519L2282.77 55.5488L2282.3 22.1782ZM2321.82 27.163L2322.52 77.4594L2308.1 84.9098L2307.39 34.5912L2321.82 27.163ZM2248.28 38.6225L2280.7 56.0655L2280.92 71.3779L2233.84 46.0728L2248.28 38.6225ZM2323.59 79.1104L2371.71 104.994L2357.27 112.436L2309.15 86.5608L2323.59 79.1104ZM2372.76 106.644L2373.1 130.72L2358.67 138.163L2358.33 114.095L2372.76 106.644ZM2308.51 114.447L2323.15 122.316L2323.63 156.234L2309.2 163.677L2308.51 114.447Z" fill="#FEEBEB"/>
<path d="M2518.37 10.9309L2516.31 11.9953L2499.82 20.5027L2497.76 21.567L2497.79 23.7503L2498.19 52.1993L2470.99 37.5721L2468.9 36.4458L2466.84 37.5101L2450.35 46.0175L2448.29 47.0819L2448.32 49.2651L2448.69 75.5309L2448.72 77.7141L2450.81 78.8404L2498.92 104.716L2499.62 155.012L2499.66 157.196L2501.74 158.322L2526.84 171.845L2528.93 172.971L2531 171.907L2547.49 163.4L2549.55 162.335L2549.52 160.152L2549.12 131.703L2576.31 146.33L2578.4 147.456L2580.47 146.392L2596.96 137.885L2599.02 136.82L2598.99 134.637L2598.62 108.371L2598.59 106.188L2596.5 105.062L2548.39 79.1864L2547.69 28.89L2547.66 26.7067L2545.57 25.5805L2520.47 12.0574L2518.37 10.9309ZM2518.45 16.4002L2541.46 28.797L2527.03 36.2253L2504.02 23.8432L2518.45 16.4002ZM2503 25.4708L2526.01 37.8528L2526.74 89.8144C2526.74 89.9796 2526.8 90.1424 2526.89 90.2865C2526.98 90.4307 2527.11 90.5513 2527.27 90.6362L2576.95 117.356L2577.29 141.424L2545.39 124.263L2545.3 124.217L2528.65 115.267C2528.47 115.168 2528.26 115.121 2528.05 115.132C2527.79 115.147 2527.55 115.251 2527.37 115.424C2527.2 115.597 2527.1 115.826 2527.11 116.065L2527.82 166.939L2504.81 154.542L2504.08 102.61C2504.08 102.444 2504.03 102.279 2503.94 102.134C2503.84 101.988 2503.71 101.867 2503.55 101.781L2453.87 75.0606L2453.53 50.9856L2502.17 77.1427C2502.33 77.2282 2502.51 77.2746 2502.69 77.2773C2502.87 77.2799 2503.05 77.2387 2503.21 77.1578C2503.36 77.0769 2503.49 76.9591 2503.58 76.8164C2503.67 76.6736 2503.72 76.5108 2503.72 76.3444L2503.47 58.8413L2503 25.4708ZM2542.52 30.4555L2543.22 80.7519L2528.8 88.2024L2528.09 37.8838L2542.52 30.4555ZM2468.98 41.915L2501.4 59.358L2501.62 74.6704L2454.54 49.3653L2468.98 41.915ZM2544.29 82.403L2592.41 108.286L2577.97 115.729L2529.85 89.8533L2544.29 82.403ZM2593.46 109.937L2593.8 134.012L2579.37 141.455L2579.03 117.387L2593.46 109.937ZM2529.21 117.739L2543.85 125.609L2544.33 159.527L2529.9 166.97L2529.21 117.739Z" fill="#FEEBEB"/>
<path d="M2739.07 14.2235L2737.01 15.2878L2720.52 23.7952L2718.46 24.8596L2718.49 27.0429L2718.89 55.4918L2691.69 40.8646L2689.6 39.7383L2687.54 40.8026L2671.05 49.3101L2668.99 50.3744L2669.02 52.5577L2669.39 78.8234L2669.42 81.0067L2671.51 82.133L2719.62 108.009L2720.32 158.305L2720.36 160.488L2722.44 161.614L2747.54 175.137L2749.63 176.264L2751.7 175.199L2768.19 166.692L2770.25 165.628L2770.22 163.444L2769.82 134.995L2797.01 149.623L2799.11 150.749L2801.17 149.685L2817.66 141.177L2819.72 140.113L2819.69 137.93L2819.32 111.664L2819.29 109.481L2817.2 108.354L2769.09 82.4789L2768.39 32.1825L2768.36 29.9992L2766.27 28.873L2741.17 15.3499L2739.07 14.2235ZM2739.15 19.6927L2762.16 32.0896L2747.73 39.5178L2724.72 27.1358L2739.15 19.6927ZM2723.7 28.7633L2746.71 41.1453L2747.44 93.1069C2747.44 93.2721 2747.5 93.4349 2747.59 93.5791C2747.68 93.7233 2747.81 93.8438 2747.97 93.9288L2797.65 120.649L2797.99 144.717L2766.09 127.555L2766 127.51L2749.35 118.56C2749.17 118.461 2748.96 118.414 2748.75 118.425C2748.49 118.44 2748.25 118.544 2748.07 118.717C2747.9 118.89 2747.8 119.119 2747.81 119.358L2748.52 170.232L2725.51 157.835L2724.78 105.903C2724.78 105.736 2724.73 105.572 2724.64 105.426C2724.54 105.281 2724.41 105.159 2724.25 105.073L2674.57 78.3532L2674.23 54.2781L2722.87 80.4352C2723.03 80.5207 2723.21 80.5672 2723.39 80.5698C2723.57 80.5725 2723.75 80.5313 2723.91 80.4504C2724.06 80.3695 2724.19 80.2517 2724.28 80.1089C2724.37 79.9661 2724.42 79.8033 2724.42 79.637L2724.17 62.1339L2723.7 28.7633ZM2763.22 33.748L2763.92 84.0444L2749.5 91.4949L2748.79 41.1763L2763.22 33.748ZM2689.68 45.2075L2722.1 62.6506L2722.32 77.963L2675.24 52.6579L2689.68 45.2075ZM2764.99 85.6955L2813.11 111.579L2798.67 119.022L2750.55 93.1459L2764.99 85.6955ZM2814.16 113.23L2814.5 137.305L2800.07 144.748L2799.73 120.68L2814.16 113.23ZM2749.91 121.032L2764.55 128.901L2765.03 162.819L2750.6 170.262L2749.91 121.032Z" fill="#FEEBEB"/>
<path d="M2959.77 17.5161L2957.71 18.5804L2941.22 27.0878L2939.16 28.1522L2939.19 30.3355L2939.59 58.7844L2912.39 44.1572L2910.3 43.0309L2908.24 44.0953L2891.75 52.6027L2889.69 53.667L2889.72 55.8503L2890.09 82.116L2890.12 84.2993L2892.21 85.4256L2940.32 111.301L2941.02 161.598L2941.06 163.781L2943.14 164.907L2968.24 178.43L2970.33 179.556L2972.4 178.492L2988.89 169.985L2990.95 168.92L2990.92 166.737L2990.52 138.288L3017.71 152.915L3019.8 154.042L3021.87 152.977L3038.36 144.47L3040.42 143.405L3040.39 141.222L3040.02 114.956L3039.99 112.773L3037.9 111.647L2989.79 85.7715L2989.09 35.4751L2989.06 33.2918L2986.97 32.1656L2961.87 18.6425L2959.77 17.5161ZM2959.85 22.9853L2982.86 35.3822L2968.43 42.8104L2945.42 30.4284L2959.85 22.9853ZM2944.4 32.0559L2967.41 44.4379L2968.14 96.3995C2968.14 96.5647 2968.2 96.7275 2968.29 96.8717C2968.38 97.0159 2968.51 97.1364 2968.67 97.2214L3018.35 123.942L3018.69 148.009L2986.79 130.848L2986.7 130.802L2970.05 121.852C2969.87 121.753 2969.66 121.706 2969.45 121.717C2969.19 121.732 2968.95 121.837 2968.77 122.01C2968.6 122.183 2968.5 122.412 2968.51 122.65L2969.22 173.524L2946.21 161.127L2945.48 109.195C2945.48 109.029 2945.43 108.865 2945.34 108.719C2945.24 108.573 2945.11 108.452 2944.95 108.366L2895.27 81.6458L2894.93 57.5707L2943.57 83.7278C2943.73 83.8133 2943.91 83.8598 2944.09 83.8624C2944.27 83.8651 2944.45 83.8239 2944.61 83.743C2944.76 83.6621 2944.89 83.5443 2944.98 83.4015C2945.07 83.2587 2945.12 83.0959 2945.12 82.9296L2944.87 65.4265L2944.4 32.0559ZM2983.92 37.0406L2984.62 87.337L2970.19 94.7875L2969.49 44.4689L2983.92 37.0406ZM2910.38 48.5001L2942.8 65.9432L2943.02 81.2556L2895.94 55.9505L2910.38 48.5001ZM2985.69 88.9881L3033.81 114.871L3019.37 122.314L2971.25 96.4385L2985.69 88.9881ZM3034.86 116.522L3035.2 140.597L3020.77 148.04L3020.43 123.973L3034.86 116.522ZM2970.61 124.324L2985.25 132.194L2985.73 166.112L2971.3 173.555L2970.61 124.324Z" fill="#FEEBEB"/>
<path d="M3180.47 20.8086L3178.41 21.873L3161.92 30.3804L3159.86 31.4447L3159.89 33.628L3160.29 62.077L3133.09 47.4498L3131 46.3234L3128.94 47.3878L3112.45 55.8952L3110.39 56.9595L3110.42 59.1428L3110.79 85.4085L3110.82 87.5918L3112.91 88.7181L3161.02 114.594L3161.72 164.89L3161.76 167.073L3163.84 168.2L3188.94 181.723L3191.03 182.849L3193.1 181.785L3209.59 173.277L3211.65 172.213L3211.62 170.03L3211.22 141.581L3238.41 156.208L3240.5 157.334L3242.57 156.27L3259.06 147.762L3261.12 146.698L3261.09 144.515L3260.72 118.249L3260.69 116.066L3258.6 114.939L3210.49 89.064L3209.79 38.7676L3209.76 36.5844L3207.67 35.4582L3182.57 21.9351L3180.47 20.8086ZM3180.55 26.2779L3203.56 38.6747L3189.13 46.1029L3166.12 33.7209L3180.55 26.2779ZM3165.1 35.3484L3188.11 47.7305L3188.84 99.6921C3188.84 99.8573 3188.9 100.02 3188.99 100.164C3189.08 100.308 3189.21 100.429 3189.37 100.514L3239.05 127.234L3239.39 151.302L3207.49 134.14L3207.4 134.095L3190.75 125.145C3190.57 125.046 3190.36 124.999 3190.15 125.01C3189.89 125.025 3189.65 125.129 3189.47 125.302C3189.3 125.475 3189.2 125.704 3189.21 125.943L3189.92 176.817L3166.91 164.42L3166.18 112.488C3166.18 112.321 3166.13 112.157 3166.04 112.012C3165.94 111.866 3165.81 111.744 3165.65 111.659L3115.97 84.9383L3115.63 60.8633L3164.27 87.0204C3164.43 87.1059 3164.61 87.1523 3164.79 87.155C3164.97 87.1576 3165.15 87.1164 3165.31 87.0355C3165.46 86.9546 3165.59 86.8368 3165.68 86.694C3165.77 86.5512 3165.82 86.3885 3165.82 86.2221L3165.57 68.719L3165.1 35.3484ZM3204.62 40.3332L3205.32 90.6296L3190.89 98.08L3190.19 47.7614L3204.62 40.3332ZM3131.08 51.7927L3163.5 69.2357L3163.72 84.5481L3116.64 59.243L3131.08 51.7927ZM3206.38 92.2807L3254.51 118.164L3240.07 125.607L3191.95 99.731L3206.38 92.2807ZM3255.56 119.815L3255.9 143.89L3241.47 151.333L3241.13 127.265L3255.56 119.815ZM3191.31 127.617L3205.95 135.486L3206.43 169.405L3192 176.848L3191.31 127.617Z" fill="#FEEBEB"/>
<path d="M3401.17 24.1012L3399.11 25.1655L3382.62 33.6729L3380.56 34.7373L3380.59 36.9205L3380.99 65.3695L3353.79 50.7423L3351.7 49.616L3349.64 50.6803L3333.15 59.1877L3331.09 60.2521L3331.12 62.4354L3331.49 88.7011L3331.52 90.8843L3333.61 92.0107L3381.72 117.886L3382.42 168.183L3382.45 170.366L3384.54 171.492L3409.64 185.015L3411.73 186.141L3413.79 185.077L3430.29 176.57L3432.35 175.505L3432.32 173.322L3431.92 144.873L3459.11 159.5L3461.2 160.627L3463.27 159.562L3479.76 151.055L3481.82 149.991L3481.79 147.807L3481.42 121.542L3481.39 119.358L3479.3 118.232L3431.19 92.3566L3430.49 42.0602L3430.46 39.8769L3428.37 38.7507L3403.27 25.2276L3401.17 24.1012ZM3401.25 29.5704L3424.26 41.9672L3409.83 49.3955L3386.82 37.0135L3401.25 29.5704ZM3385.8 38.641L3408.81 51.023L3409.54 102.985C3409.54 103.15 3409.6 103.313 3409.69 103.457C3409.78 103.601 3409.91 103.721 3410.07 103.806L3459.75 130.527L3460.09 154.594L3428.19 137.433L3428.1 137.387L3411.45 128.437C3411.27 128.338 3411.06 128.291 3410.85 128.302C3410.59 128.317 3410.35 128.422 3410.17 128.595C3410 128.768 3409.9 128.997 3409.91 129.236L3410.62 180.109L3387.61 167.712L3386.88 115.78C3386.88 115.614 3386.83 115.45 3386.74 115.304C3386.64 115.158 3386.51 115.037 3386.35 114.951L3336.67 88.2309L3336.33 64.1558L3384.97 90.3129C3385.13 90.3984 3385.31 90.4449 3385.49 90.4475C3385.67 90.4502 3385.85 90.409 3386.01 90.328C3386.16 90.2471 3386.29 90.1294 3386.38 89.9866C3386.47 89.8438 3386.52 89.681 3386.51 89.5147L3386.27 72.0116L3385.8 38.641ZM3425.32 43.6257L3426.02 93.9221L3411.59 101.373L3410.89 51.054L3425.32 43.6257ZM3351.78 55.0852L3384.2 72.5282L3384.42 87.8407L3337.34 62.5356L3351.78 55.0852ZM3427.08 95.5732L3475.21 121.456L3460.77 128.899L3412.65 103.024L3427.08 95.5732ZM3476.26 123.107L3476.6 147.182L3462.17 154.625L3461.83 130.558L3476.26 123.107ZM3412.01 130.91L3426.65 138.779L3427.12 172.697L3412.7 180.14L3412.01 130.91Z" fill="#FEEBEB"/>
<path d="M3641.94 1.05332L3639.88 2.11767L3623.39 10.6251L3621.33 11.6894L3621.36 13.8727L3621.76 42.3217L3594.56 27.6944L3592.47 26.5681L3590.41 27.6325L3573.92 36.1399L3571.86 37.2042L3571.89 39.3875L3572.26 65.6532L3572.29 67.8365L3574.38 68.9628L3622.49 94.8383L3623.19 145.135L3623.22 147.318L3625.31 148.444L3650.41 161.967L3652.5 163.094L3654.56 162.029L3671.05 153.522L3673.12 152.458L3673.09 150.274L3672.69 121.825L3699.88 136.453L3701.97 137.579L3704.04 136.514L3720.53 128.007L3722.59 126.943L3722.56 124.759L3722.19 98.4937L3722.16 96.3105L3720.07 95.1841L3671.96 69.3087L3671.26 19.0123L3671.23 16.8291L3669.14 15.7029L3644.04 2.17975L3641.94 1.05332ZM3642.02 6.52257L3665.03 18.9194L3650.6 26.3476L3627.59 13.9656L3642.02 6.52257ZM3626.57 15.5931L3649.58 27.9751L3650.31 79.9367C3650.31 80.102 3650.37 80.2648 3650.46 80.4089C3650.55 80.5531 3650.68 80.6736 3650.84 80.7586L3700.52 107.479L3700.86 131.547L3668.96 114.385L3668.87 114.339L3652.22 105.389C3652.04 105.29 3651.83 105.243 3651.62 105.255C3651.36 105.269 3651.12 105.374 3650.94 105.547C3650.77 105.72 3650.67 105.949 3650.68 106.188L3651.39 157.061L3628.38 144.665L3627.65 92.7325C3627.65 92.5661 3627.6 92.4018 3627.51 92.2562C3627.41 92.1106 3627.28 91.9889 3627.12 91.9033L3577.44 65.183L3577.1 41.1079L3625.74 67.2651C3625.9 67.3506 3626.08 67.397 3626.26 67.3997C3626.44 67.4023 3626.62 67.3611 3626.78 67.2802C3626.93 67.1993 3627.06 67.0815 3627.15 66.9387C3627.24 66.7959 3627.29 66.6332 3627.28 66.4668L3627.04 48.9637L3626.57 15.5931ZM3666.09 20.5779L3666.79 70.8743L3652.36 78.3247L3651.66 28.0061L3666.09 20.5779ZM3592.55 32.0374L3624.97 49.4804L3625.19 64.7928L3578.11 39.4877L3592.55 32.0374ZM3667.85 72.5254L3715.98 98.4084L3701.54 105.851L3653.42 79.9757L3667.85 72.5254ZM3717.03 100.059L3717.37 124.134L3702.94 131.578L3702.6 107.51L3717.03 100.059ZM3652.78 107.862L3667.42 115.731L3667.89 149.649L3653.47 157.092L3652.78 107.862Z" fill="#FEEBEB"/>
<path d="M3862.64 4.34586L3860.58 5.41021L3844.09 13.9176L3842.03 14.982L3842.06 17.1652L3842.46 45.6142L3815.26 30.987L3813.17 29.8607L3811.11 30.925L3794.62 39.4324L3792.56 40.4968L3792.59 42.68L3792.96 68.9458L3792.99 71.129L3795.08 72.2553L3843.19 98.1309L3843.89 148.427L3843.92 150.611L3846.01 151.737L3871.11 165.26L3873.2 166.386L3875.26 165.322L3891.75 156.814L3893.82 155.75L3893.79 153.567L3893.39 125.118L3920.58 139.745L3922.67 140.871L3924.74 139.807L3941.23 131.3L3943.29 130.235L3943.26 128.052L3942.89 101.786L3942.86 99.603L3940.77 98.4767L3892.66 72.6013L3891.96 22.3049L3891.93 20.1216L3889.84 18.9954L3864.74 5.47229L3862.64 4.34586ZM3862.72 9.81511L3885.73 22.2119L3871.3 29.6402L3848.29 17.2582L3862.72 9.81511ZM3847.27 18.8857L3870.28 31.2677L3871.01 83.2293C3871.01 83.3945 3871.06 83.5573 3871.16 83.7015C3871.25 83.8456 3871.38 83.9662 3871.54 84.0511L3921.22 110.771L3921.56 134.839L3889.66 117.678L3889.57 117.632L3872.92 108.682C3872.74 108.583 3872.53 108.536 3872.32 108.547C3872.06 108.562 3871.82 108.666 3871.64 108.839C3871.47 109.012 3871.37 109.241 3871.38 109.48L3872.09 160.354L3849.08 147.957L3848.35 96.0251C3848.35 95.8586 3848.3 95.6943 3848.21 95.5487C3848.11 95.4032 3847.98 95.2814 3847.82 95.1958L3798.14 68.4756L3797.8 44.4005L3846.44 70.5576C3846.6 70.6431 3846.78 70.6895 3846.96 70.6922C3847.14 70.6949 3847.32 70.6537 3847.48 70.5727C3847.63 70.4918 3847.76 70.3741 3847.85 70.2313C3847.94 70.0885 3847.99 69.9257 3847.98 69.7593L3847.74 52.2563L3847.27 18.8857ZM3886.79 23.8704L3887.49 74.1668L3873.06 81.6173L3872.36 31.2987L3886.79 23.8704ZM3813.25 35.3299L3845.67 52.7729L3845.89 68.0854L3798.81 42.7803L3813.25 35.3299ZM3888.55 75.8179L3936.68 101.701L3922.24 109.144L3874.12 83.2682L3888.55 75.8179ZM3937.73 103.352L3938.07 127.427L3923.64 134.87L3923.3 110.802L3937.73 103.352ZM3873.48 111.154L3888.12 119.024L3888.59 152.942L3874.17 160.385L3873.48 111.154Z" fill="#FEEBEB"/>
<path d="M4083.34 7.6384L4081.28 8.70275L4064.79 17.2102L4062.73 18.2745L4062.76 20.4578L4063.16 48.9068L4035.96 34.2795L4033.87 33.1532L4031.81 34.2176L4015.32 42.725L4013.26 43.7893L4013.29 45.9726L4013.66 72.2383L4013.69 74.4216L4015.78 75.5479L4063.89 101.423L4064.59 151.72L4064.62 153.903L4066.71 155.029L4091.81 168.552L4093.9 169.679L4095.96 168.614L4112.45 160.107L4114.52 159.043L4114.49 156.859L4114.09 128.41L4141.28 143.038L4143.37 144.164L4145.44 143.1L4161.93 134.592L4163.99 133.528L4163.96 131.345L4163.59 105.079L4163.56 102.896L4161.47 101.769L4113.36 75.8938L4112.66 25.5974L4112.63 23.4141L4110.54 22.288L4085.44 8.76483L4083.34 7.6384ZM4083.42 13.1077L4106.43 25.5045L4092 32.9327L4068.99 20.5507L4083.42 13.1077ZM4067.97 22.1782L4090.98 34.5602L4091.71 86.5218C4091.71 86.6871 4091.77 86.8498 4091.86 86.994C4091.95 87.1382 4092.08 87.2587 4092.24 87.3437L4141.92 114.064L4142.26 138.132L4110.36 120.97L4110.27 120.924L4093.62 111.974C4093.44 111.875 4093.23 111.828 4093.02 111.84C4092.76 111.855 4092.52 111.959 4092.34 112.132C4092.17 112.305 4092.07 112.534 4092.08 112.773L4092.79 163.646L4069.78 151.25L4069.05 99.3176C4069.05 99.1511 4069 98.9869 4068.91 98.8413C4068.81 98.6957 4068.68 98.574 4068.52 98.4884L4018.84 71.7681L4018.5 47.693L4067.14 73.8501C4067.3 73.9357 4067.48 73.9821 4067.66 73.9847C4067.84 73.9874 4068.02 73.9462 4068.18 73.8653C4068.33 73.7844 4068.46 73.6666 4068.55 73.5238C4068.64 73.381 4068.69 73.2183 4068.68 73.0519L4068.44 55.5488L4067.97 22.1782ZM4107.49 27.163L4108.19 77.4594L4093.76 84.9098L4093.06 34.5912L4107.49 27.163ZM4033.95 38.6225L4066.37 56.0655L4066.59 71.3779L4019.51 46.0728L4033.95 38.6225ZM4109.25 79.1104L4157.38 104.994L4142.94 112.436L4094.82 86.5608L4109.25 79.1104ZM4158.43 106.644L4158.77 130.72L4144.34 138.163L4144 114.095L4158.43 106.644ZM4094.18 114.447L4108.82 122.316L4109.29 156.234L4094.87 163.677L4094.18 114.447Z" fill="#FEEBEB"/>
<path d="M4304.04 10.9309L4301.98 11.9953L4285.49 20.5027L4283.43 21.567L4283.46 23.7503L4283.86 52.1993L4256.66 37.5721L4254.57 36.4458L4252.51 37.5101L4236.02 46.0175L4233.96 47.0819L4233.99 49.2651L4234.35 75.5309L4234.39 77.7141L4236.48 78.8404L4284.59 104.716L4285.29 155.012L4285.32 157.196L4287.41 158.322L4312.51 171.845L4314.6 172.971L4316.66 171.907L4333.15 163.4L4335.22 162.335L4335.19 160.152L4334.79 131.703L4361.98 146.33L4364.07 147.456L4366.13 146.392L4382.63 137.885L4384.69 136.82L4384.66 134.637L4384.29 108.371L4384.26 106.188L4382.17 105.062L4334.06 79.1864L4333.36 28.89L4333.33 26.7067L4331.24 25.5805L4306.14 12.0574L4304.04 10.9309ZM4304.12 16.4002L4327.13 28.797L4312.7 36.2253L4289.69 23.8432L4304.12 16.4002ZM4288.67 25.4708L4311.68 37.8528L4312.41 89.8144C4312.41 89.9796 4312.46 90.1424 4312.56 90.2865C4312.65 90.4307 4312.78 90.5513 4312.94 90.6362L4362.62 117.356L4362.96 141.424L4331.06 124.263L4330.97 124.217L4314.32 115.267C4314.14 115.168 4313.93 115.121 4313.72 115.132C4313.46 115.147 4313.22 115.251 4313.04 115.424C4312.87 115.597 4312.77 115.826 4312.78 116.065L4313.49 166.939L4290.48 154.542L4289.75 102.61C4289.75 102.444 4289.7 102.279 4289.61 102.134C4289.51 101.988 4289.38 101.867 4289.22 101.781L4239.54 75.0606L4239.2 50.9856L4287.84 77.1427C4288 77.2282 4288.18 77.2746 4288.36 77.2773C4288.54 77.2799 4288.72 77.2387 4288.88 77.1578C4289.03 77.0769 4289.16 76.9591 4289.25 76.8164C4289.34 76.6736 4289.39 76.5108 4289.38 76.3444L4289.14 58.8413L4288.67 25.4708ZM4328.19 30.4555L4328.89 80.7519L4314.46 88.2024L4313.76 37.8838L4328.19 30.4555ZM4254.65 41.915L4287.07 59.358L4287.28 74.6704L4240.21 49.3653L4254.65 41.915ZM4329.95 82.403L4378.08 108.286L4363.64 115.729L4315.52 89.8533L4329.95 82.403ZM4379.13 109.937L4379.46 134.012L4365.04 141.455L4364.7 117.387L4379.13 109.937ZM4314.88 117.739L4329.52 125.609L4329.99 159.527L4315.57 166.97L4314.88 117.739Z" fill="#FEEBEB"/>
<path d="M4524.74 14.2235L4522.68 15.2878L4506.19 23.7952L4504.13 24.8596L4504.16 27.0429L4504.56 55.4918L4477.36 40.8646L4475.27 39.7383L4473.21 40.8026L4456.72 49.3101L4454.66 50.3744L4454.69 52.5577L4455.05 78.8234L4455.09 81.0067L4457.18 82.133L4505.29 108.009L4505.99 158.305L4506.02 160.488L4508.11 161.614L4533.21 175.137L4535.3 176.264L4537.36 175.199L4553.85 166.692L4555.92 165.628L4555.89 163.444L4555.49 134.995L4582.68 149.623L4584.77 150.749L4586.83 149.685L4603.33 141.177L4605.39 140.113L4605.36 137.93L4604.99 111.664L4604.96 109.481L4602.87 108.354L4554.76 82.4789L4554.06 32.1825L4554.03 29.9992L4551.94 28.873L4526.84 15.3499L4524.74 14.2235ZM4524.82 19.6927L4547.83 32.0896L4533.4 39.5178L4510.39 27.1358L4524.82 19.6927ZM4509.37 28.7633L4532.38 41.1453L4533.11 93.1069C4533.11 93.2721 4533.16 93.4349 4533.26 93.5791C4533.35 93.7233 4533.48 93.8438 4533.64 93.9288L4583.32 120.649L4583.66 144.717L4551.76 127.555L4551.67 127.51L4535.02 118.56C4534.84 118.461 4534.63 118.414 4534.42 118.425C4534.16 118.44 4533.92 118.544 4533.74 118.717C4533.57 118.89 4533.47 119.119 4533.48 119.358L4534.19 170.232L4511.18 157.835L4510.45 105.903C4510.45 105.736 4510.4 105.572 4510.31 105.426C4510.21 105.281 4510.08 105.159 4509.92 105.073L4460.24 78.3532L4459.9 54.2781L4508.54 80.4352C4508.7 80.5207 4508.88 80.5672 4509.06 80.5698C4509.24 80.5725 4509.42 80.5313 4509.58 80.4504C4509.73 80.3695 4509.86 80.2517 4509.95 80.1089C4510.04 79.9661 4510.09 79.8033 4510.08 79.637L4509.84 62.1339L4509.37 28.7633ZM4548.89 33.748L4549.59 84.0444L4535.16 91.4949L4534.46 41.1763L4548.89 33.748ZM4475.35 45.2075L4507.77 62.6506L4507.98 77.963L4460.91 52.6579L4475.35 45.2075ZM4550.65 85.6955L4598.78 111.579L4584.34 119.022L4536.22 93.1459L4550.65 85.6955ZM4599.83 113.23L4600.16 137.305L4585.74 144.748L4585.4 120.68L4599.83 113.23ZM4535.58 121.032L4550.22 128.901L4550.69 162.819L4536.27 170.262L4535.58 121.032Z" fill="#FEEBEB"/>
<path d="M4745.44 17.5161L4743.38 18.5804L4726.89 27.0878L4724.83 28.1522L4724.86 30.3355L4725.26 58.7844L4698.06 44.1572L4695.97 43.0309L4693.91 44.0953L4677.42 52.6027L4675.36 53.667L4675.39 55.8503L4675.75 82.116L4675.79 84.2993L4677.88 85.4256L4725.99 111.301L4726.69 161.598L4726.72 163.781L4728.81 164.907L4753.91 178.43L4756 179.556L4758.06 178.492L4774.55 169.985L4776.62 168.92L4776.58 166.737L4776.19 138.288L4803.38 152.915L4805.47 154.042L4807.53 152.977L4824.03 144.47L4826.09 143.405L4826.06 141.222L4825.69 114.956L4825.66 112.773L4823.57 111.647L4775.46 85.7715L4774.76 35.4751L4774.73 33.2918L4772.64 32.1656L4747.54 18.6425L4745.44 17.5161ZM4745.52 22.9853L4768.53 35.3822L4754.1 42.8104L4731.09 30.4284L4745.52 22.9853ZM4730.07 32.0559L4753.08 44.4379L4753.81 96.3995C4753.81 96.5647 4753.86 96.7275 4753.96 96.8717C4754.05 97.0159 4754.18 97.1364 4754.34 97.2214L4804.02 123.942L4804.36 148.009L4772.46 130.848L4772.37 130.802L4755.72 121.852C4755.54 121.753 4755.33 121.706 4755.12 121.717C4754.86 121.732 4754.62 121.837 4754.44 122.01C4754.27 122.183 4754.17 122.412 4754.18 122.65L4754.89 173.524L4731.88 161.127L4731.15 109.195C4731.15 109.029 4731.1 108.865 4731.01 108.719C4730.91 108.573 4730.78 108.452 4730.62 108.366L4680.94 81.6458L4680.6 57.5707L4729.24 83.7278C4729.4 83.8133 4729.58 83.8598 4729.76 83.8624C4729.94 83.8651 4730.12 83.8239 4730.28 83.743C4730.43 83.6621 4730.56 83.5443 4730.65 83.4015C4730.74 83.2587 4730.79 83.0959 4730.78 82.9296L4730.54 65.4265L4730.07 32.0559ZM4769.59 37.0406L4770.29 87.337L4755.86 94.7875L4755.16 44.4689L4769.59 37.0406ZM4696.05 48.5001L4728.47 65.9432L4728.68 81.2556L4681.61 55.9505L4696.05 48.5001ZM4771.35 88.9881L4819.48 114.871L4805.04 122.314L4756.92 96.4385L4771.35 88.9881ZM4820.53 116.522L4820.86 140.597L4806.44 148.04L4806.1 123.973L4820.53 116.522ZM4756.28 124.324L4770.92 132.194L4771.39 166.112L4756.96 173.555L4756.28 124.324Z" fill="#FEEBEB"/>
<path d="M4966.14 20.8086L4964.08 21.873L4947.59 30.3804L4945.53 31.4447L4945.56 33.628L4945.96 62.077L4918.76 47.4498L4916.67 46.3234L4914.61 47.3878L4898.12 55.8952L4896.06 56.9595L4896.09 59.1428L4896.45 85.4085L4896.49 87.5918L4898.58 88.7181L4946.69 114.594L4947.39 164.89L4947.42 167.073L4949.51 168.2L4974.61 181.723L4976.7 182.849L4978.76 181.785L4995.25 173.277L4997.32 172.213L4997.28 170.03L4996.89 141.581L5024.08 156.208L5026.17 157.334L5028.23 156.27L5044.73 147.762L5046.79 146.698L5046.76 144.515L5046.39 118.249L5046.36 116.066L5044.27 114.939L4996.16 89.064L4995.46 38.7676L4995.43 36.5844L4993.34 35.4582L4968.24 21.9351L4966.14 20.8086ZM4966.22 26.2779L4989.23 38.6747L4974.8 46.1029L4951.79 33.7209L4966.22 26.2779ZM4950.77 35.3484L4973.78 47.7305L4974.51 99.6921C4974.51 99.8573 4974.56 100.02 4974.66 100.164C4974.75 100.308 4974.88 100.429 4975.04 100.514L5024.72 127.234L5025.06 151.302L4993.16 134.14L4993.07 134.095L4976.42 125.145C4976.24 125.046 4976.03 124.999 4975.82 125.01C4975.56 125.025 4975.32 125.129 4975.14 125.302C4974.97 125.475 4974.87 125.704 4974.88 125.943L4975.59 176.817L4952.58 164.42L4951.85 112.488C4951.85 112.321 4951.8 112.157 4951.71 112.012C4951.61 111.866 4951.48 111.744 4951.32 111.659L4901.64 84.9383L4901.3 60.8633L4949.94 87.0204C4950.1 87.1059 4950.28 87.1523 4950.46 87.155C4950.64 87.1576 4950.82 87.1164 4950.98 87.0355C4951.13 86.9546 4951.26 86.8368 4951.35 86.694C4951.44 86.5512 4951.49 86.3885 4951.48 86.2221L4951.24 68.719L4950.77 35.3484ZM4990.29 40.3332L4990.99 90.6296L4976.56 98.08L4975.86 47.7614L4990.29 40.3332ZM4916.75 51.7927L4949.17 69.2357L4949.38 84.5481L4902.31 59.243L4916.75 51.7927ZM4992.05 92.2807L5040.18 118.164L5025.74 125.607L4977.62 99.731L4992.05 92.2807ZM5041.23 119.815L5041.56 143.89L5027.14 151.333L5026.8 127.265L5041.23 119.815ZM4976.98 127.617L4991.62 135.486L4992.09 169.405L4977.66 176.848L4976.98 127.617Z" fill="#FEEBEB"/>
<path d="M5186.84 24.1012L5184.78 25.1655L5168.29 33.6729L5166.23 34.7373L5166.26 36.9205L5166.66 65.3695L5139.46 50.7423L5137.37 49.616L5135.31 50.6803L5118.82 59.1877L5116.76 60.2521L5116.79 62.4354L5117.15 88.7011L5117.18 90.8843L5119.28 92.0107L5167.39 117.886L5168.09 168.183L5168.12 170.366L5170.21 171.492L5195.31 185.015L5197.4 186.141L5199.46 185.077L5215.95 176.57L5218.02 175.505L5217.98 173.322L5217.59 144.873L5244.78 159.5L5246.87 160.627L5248.93 159.562L5265.42 151.055L5267.49 149.991L5267.46 147.807L5267.09 121.542L5267.06 119.358L5264.97 118.232L5216.86 92.3566L5216.16 42.0602L5216.13 39.8769L5214.04 38.7507L5188.94 25.2276L5186.84 24.1012ZM5186.92 29.5704L5209.93 41.9672L5195.5 49.3955L5172.49 37.0135L5186.92 29.5704ZM5171.47 38.641L5194.48 51.023L5195.21 102.985C5195.21 103.15 5195.26 103.313 5195.36 103.457C5195.45 103.601 5195.58 103.721 5195.74 103.806L5245.42 130.527L5245.76 154.594L5213.86 137.433L5213.77 137.387L5197.12 128.437C5196.94 128.338 5196.73 128.291 5196.52 128.302C5196.26 128.317 5196.02 128.422 5195.84 128.595C5195.67 128.768 5195.57 128.997 5195.58 129.236L5196.29 180.109L5173.28 167.712L5172.55 115.78C5172.55 115.614 5172.5 115.45 5172.41 115.304C5172.31 115.158 5172.18 115.037 5172.02 114.951L5122.34 88.2309L5122 64.1558L5170.64 90.3129C5170.8 90.3984 5170.98 90.4449 5171.16 90.4475C5171.34 90.4502 5171.52 90.409 5171.68 90.328C5171.83 90.2471 5171.96 90.1294 5172.05 89.9866C5172.14 89.8438 5172.19 89.681 5172.18 89.5147L5171.94 72.0116L5171.47 38.641ZM5210.99 43.6257L5211.69 93.9221L5197.26 101.373L5196.56 51.054L5210.99 43.6257ZM5137.45 55.0852L5169.87 72.5282L5170.08 87.8407L5123.01 62.5356L5137.45 55.0852ZM5212.75 95.5732L5260.87 121.456L5246.44 128.899L5198.32 103.024L5212.75 95.5732ZM5261.93 123.107L5262.26 147.182L5247.84 154.625L5247.5 130.558L5261.93 123.107ZM5197.68 130.91L5212.32 138.779L5212.79 172.697L5198.36 180.14L5197.68 130.91Z" fill="#FEEBEB"/>
</svg>
