<svg xmlns="http://www.w3.org/2000/svg" width="1122" height="1002" fill="none" stroke="#b3b3b3" xmlns:v="https://vecta.io/nano"><path d="M1121 1H1v1000h1120V1z"/><path d="M1048.48 65.75H73.52v870.5h974.96V65.75z"/><path d="M975.96 130.5H146.04v741h829.92v-741z"/><path d="M903.44 195.25H218.56v611.5h684.88v-611.5z"/><path d="M830.92 260H291.08V742H830.92V260Z"/><path d="M758.4 324.75H363.6v352.5h394.8v-352.5z"/><path d="M685.88 389.5H436.12v223h249.76v-223z"/><path d="M436.12 612.5L1 1001m470.8-388.5L198.396 1001M507.48 612.5L355.225 1001M543.16 612.5L494.134 1001m84.706-388.5l49.026 388.5M614.52 612.5L766.775 1001M650.2 612.5L923.604 1001M685.88 612.5L1121 1001M436.12 389.5L1 1m435.12 420.357L1 177.247m435.12 275.967L1 317.272m435.12 167.8L1 441.298m435.12 75.631L1 560.702m435.12-11.916L1 684.728m435.12-104.085L1 824.754"/><path d="M436.12 612.5L1 1001m684.88-611.5L1121 1M650.2 389.5L923.604 1M614.52 389.5L766.775 1M578.84 389.5L627.866 1M543.16 389.5L494.134 1m13.346 388.5L355.225 1M471.8 389.5L198.396 1"/><path d="M436.12 389.5L1 1m684.88 611.5L1121 1001"/><path d="M685.88 580.643L1121 824.754M685.88 548.786L1121 684.728M685.88 516.929L1121 560.702m-435.12-75.631L1121 441.298m-435.12 11.916L1121 317.272M685.88 421.357L1121 177.246M685.88 389.5L1121 1"/></svg>