<svg width="5207" height="88" viewBox="0 0 5207 88" fill="none" xmlns="http://www.w3.org/2000/svg">
<g clip-path="url(#clip0_39_800)">
<path d="M514.928 52.4556L524.396 46.5426C526.636 45.1675 527.397 42.0505 526.087 39.6211C524.819 37.1918 521.944 36.3667 519.704 37.7876L503.388 48.0094L514.928 52.4556Z" fill="#E84336"/>
<path d="M522.071 67.7194C523.677 67.7194 525.241 66.8027 526.129 65.1984C527.397 62.769 526.636 59.6979 524.438 58.2769L508.038 48.0094C505.798 46.6342 502.966 47.4593 501.655 49.8429C500.387 52.2722 501.148 55.3433 503.346 56.7643L519.704 67.0319C520.465 67.4902 521.268 67.7194 522.071 67.7194Z" fill="#4282F2"/>
<path d="M538.345 67.7194C539.148 67.7194 539.951 67.4902 540.67 67.0319L557.07 56.7643L545.657 52.2264L536.02 58.2311C533.78 59.6062 533.019 62.7232 534.329 65.1525C535.175 66.8027 536.739 67.7194 538.345 67.7194Z" fill="#F9BA08"/>
<path d="M554.745 57.4519C556.351 57.4519 557.915 56.5351 558.803 54.9308C560.071 52.5014 559.31 49.4303 557.112 48.0094L540.712 37.7877C538.472 36.4125 535.64 37.2376 534.329 39.6211C533.061 42.0505 533.822 45.1216 536.02 46.5426L552.42 56.7643C553.139 57.2227 553.942 57.4519 554.745 57.4519Z" fill="#00A150"/>
</g>
<path fill-rule="evenodd" clip-rule="evenodd" d="M480 38H288V68H304V81H460V68H480V38ZM460 68V47H304V68H460Z" fill="#D9D9D9"/>
<g clip-path="url(#clip1_39_800)">
<path d="M802.928 50.4556L812.396 44.5426C814.636 43.1675 815.397 40.0505 814.087 37.6211C812.819 35.1918 809.944 34.3667 807.704 35.7876L791.388 46.0094L802.928 50.4556Z" fill="#E84336"/>
<path d="M810.071 65.7194C811.677 65.7194 813.241 64.8027 814.129 63.1984C815.397 60.769 814.636 57.6979 812.438 56.2769L796.038 46.0094C793.798 44.6342 790.966 45.4593 789.655 47.8429C788.387 50.2722 789.148 53.3433 791.346 54.7643L807.704 65.0319C808.465 65.4902 809.268 65.7194 810.071 65.7194Z" fill="#4282F2"/>
<path d="M826.345 65.7194C827.148 65.7194 827.951 65.4902 828.67 65.0319L845.07 54.7643L833.657 50.2264L824.02 56.2311C821.78 57.6062 821.019 60.7232 822.329 63.1525C823.175 64.8027 824.739 65.7194 826.345 65.7194Z" fill="#F9BA08"/>
<path d="M842.745 55.4519C844.351 55.4519 845.915 54.5351 846.803 52.9308C848.071 50.5014 847.31 47.4303 845.112 46.0094L828.712 35.7877C826.472 34.4125 823.64 35.2376 822.329 37.6211C821.061 40.0505 821.822 43.1216 824.02 44.5426L840.42 54.7643C841.139 55.2227 841.942 55.4519 842.745 55.4519Z" fill="#00A150"/>
</g>
<path fill-rule="evenodd" clip-rule="evenodd" d="M768 36H576V66H592V79H748V66H768V36ZM748 66V45H592V66H748Z" fill="#D9D9D9"/>
<g clip-path="url(#clip2_39_800)">
<path d="M1090.93 48.4556L1100.4 42.5426C1102.64 41.1675 1103.4 38.0505 1102.09 35.6211C1100.82 33.1918 1097.94 32.3667 1095.7 33.7876L1079.39 44.0094L1090.93 48.4556Z" fill="#E84336"/>
<path d="M1098.07 63.7194C1099.68 63.7194 1101.24 62.8027 1102.13 61.1984C1103.4 58.769 1102.64 55.6979 1100.44 54.2769L1084.04 44.0094C1081.8 42.6342 1078.97 43.4593 1077.66 45.8429C1076.39 48.2722 1077.15 51.3433 1079.35 52.7643L1095.7 63.0319C1096.47 63.4902 1097.27 63.7194 1098.07 63.7194Z" fill="#4282F2"/>
<path d="M1114.34 63.7194C1115.15 63.7194 1115.95 63.4902 1116.67 63.0319L1133.07 52.7643L1121.66 48.2264L1112.02 54.2311C1109.78 55.6062 1109.02 58.7232 1110.33 61.1525C1111.17 62.8027 1112.74 63.7194 1114.34 63.7194Z" fill="#F9BA08"/>
<path d="M1130.75 53.4519C1132.35 53.4519 1133.92 52.5351 1134.8 50.9308C1136.07 48.5014 1135.31 45.4303 1133.11 44.0094L1116.71 33.7877C1114.47 32.4125 1111.64 33.2376 1110.33 35.6211C1109.06 38.0505 1109.82 41.1216 1112.02 42.5426L1128.42 52.7643C1129.14 53.2227 1129.94 53.4519 1130.75 53.4519Z" fill="#00A150"/>
</g>
<path fill-rule="evenodd" clip-rule="evenodd" d="M1056 34H864V64H880V77H1036V64H1056V34ZM1036 64V43H880V64H1036Z" fill="#D9D9D9"/>
<g clip-path="url(#clip3_39_800)">
<path d="M1378.93 46.4556L1388.4 40.5426C1390.64 39.1675 1391.4 36.0505 1390.09 33.6211C1388.82 31.1918 1385.94 30.3667 1383.7 31.7876L1367.39 42.0094L1378.93 46.4556Z" fill="#E84336"/>
<path d="M1386.07 61.7194C1387.68 61.7194 1389.24 60.8027 1390.13 59.1984C1391.4 56.769 1390.64 53.6979 1388.44 52.2769L1372.04 42.0094C1369.8 40.6342 1366.97 41.4593 1365.66 43.8429C1364.39 46.2722 1365.15 49.3433 1367.35 50.7643L1383.7 61.0319C1384.47 61.4902 1385.27 61.7194 1386.07 61.7194Z" fill="#4282F2"/>
<path d="M1402.34 61.7194C1403.15 61.7194 1403.95 61.4902 1404.67 61.0319L1421.07 50.7643L1409.66 46.2264L1400.02 52.2311C1397.78 53.6062 1397.02 56.7232 1398.33 59.1525C1399.17 60.8027 1400.74 61.7194 1402.34 61.7194Z" fill="#F9BA08"/>
<path d="M1418.75 51.4519C1420.35 51.4519 1421.92 50.5351 1422.8 48.9308C1424.07 46.5014 1423.31 43.4303 1421.11 42.0094L1404.71 31.7877C1402.47 30.4125 1399.64 31.2376 1398.33 33.6211C1397.06 36.0505 1397.82 39.1216 1400.02 40.5426L1416.42 50.7643C1417.14 51.2227 1417.94 51.4519 1418.75 51.4519Z" fill="#00A150"/>
</g>
<path fill-rule="evenodd" clip-rule="evenodd" d="M1344 32H1152V62H1168V75H1324V62H1344V32ZM1324 62V41H1168V62H1324Z" fill="#D9D9D9"/>
<g clip-path="url(#clip4_39_800)">
<path d="M1666.93 44.4556L1676.4 38.5426C1678.64 37.1675 1679.4 34.0505 1678.09 31.6211C1676.82 29.1918 1673.94 28.3667 1671.7 29.7876L1655.39 40.0094L1666.93 44.4556Z" fill="#E84336"/>
<path d="M1674.07 59.7194C1675.68 59.7194 1677.24 58.8027 1678.13 57.1984C1679.4 54.769 1678.64 51.6979 1676.44 50.2769L1660.04 40.0094C1657.8 38.6342 1654.97 39.4593 1653.66 41.8429C1652.39 44.2722 1653.15 47.3433 1655.35 48.7643L1671.7 59.0319C1672.47 59.4902 1673.27 59.7194 1674.07 59.7194Z" fill="#4282F2"/>
<path d="M1690.34 59.7194C1691.15 59.7194 1691.95 59.4902 1692.67 59.0319L1709.07 48.7643L1697.66 44.2264L1688.02 50.2311C1685.78 51.6062 1685.02 54.7232 1686.33 57.1525C1687.17 58.8027 1688.74 59.7194 1690.34 59.7194Z" fill="#F9BA08"/>
<path d="M1706.75 49.4519C1708.35 49.4519 1709.92 48.5351 1710.8 46.9308C1712.07 44.5014 1711.31 41.4303 1709.11 40.0094L1692.71 29.7877C1690.47 28.4125 1687.64 29.2376 1686.33 31.6211C1685.06 34.0505 1685.82 37.1216 1688.02 38.5426L1704.42 48.7643C1705.14 49.2227 1705.94 49.4519 1706.75 49.4519Z" fill="#00A150"/>
</g>
<path fill-rule="evenodd" clip-rule="evenodd" d="M1632 30H1440V60H1456V73H1612V60H1632V30ZM1612 60V39H1456V60H1612Z" fill="#D9D9D9"/>
<g clip-path="url(#clip5_39_800)">
<path d="M226.928 59.4556L236.396 53.5426C238.636 52.1675 239.397 49.0505 238.087 46.6211C236.819 44.1918 233.944 43.3667 231.704 44.7876L215.388 55.0094L226.928 59.4556Z" fill="#E84336"/>
<path d="M234.071 74.7194C235.677 74.7194 237.241 73.8027 238.129 72.1984C239.397 69.769 238.636 66.6979 236.438 65.2769L220.038 55.0094C217.798 53.6342 214.966 54.4593 213.655 56.8429C212.387 59.2722 213.148 62.3433 215.346 63.7643L231.704 74.0319C232.465 74.4902 233.268 74.7194 234.071 74.7194Z" fill="#4282F2"/>
<path d="M250.345 74.7194C251.148 74.7194 251.951 74.4902 252.67 74.0319L269.07 63.7643L257.657 59.2264L248.02 65.2311C245.78 66.6062 245.019 69.7232 246.329 72.1525C247.175 73.8027 248.739 74.7194 250.345 74.7194Z" fill="#F9BA08"/>
<path d="M266.745 64.4519C268.351 64.4519 269.915 63.5351 270.803 61.9308C272.071 59.5014 271.31 56.4303 269.112 55.0094L252.712 44.7877C250.472 43.4125 247.64 44.2376 246.329 46.6211C245.061 49.0505 245.822 52.1216 248.02 53.5426L264.42 63.7643C265.139 64.2227 265.942 64.4519 266.745 64.4519Z" fill="#00A150"/>
</g>
<path fill-rule="evenodd" clip-rule="evenodd" d="M192 45H0V75H16V88H172V75H192V45ZM172 75V54H16V75H172Z" fill="#D9D9D9"/>
<g clip-path="url(#clip6_39_800)">
<path d="M2262.93 39.4556L2272.4 33.5426C2274.64 32.1675 2275.4 29.0505 2274.09 26.6211C2272.82 24.1918 2269.94 23.3667 2267.7 24.7876L2251.39 35.0094L2262.93 39.4556Z" fill="#E84336"/>
<path d="M2270.07 54.7194C2271.68 54.7194 2273.24 53.8027 2274.13 52.1984C2275.4 49.769 2274.64 46.6979 2272.44 45.2769L2256.04 35.0094C2253.8 33.6342 2250.97 34.4593 2249.66 36.8429C2248.39 39.2722 2249.15 42.3433 2251.35 43.7643L2267.7 54.0319C2268.47 54.4902 2269.27 54.7194 2270.07 54.7194Z" fill="#4282F2"/>
<path d="M2286.34 54.7194C2287.15 54.7194 2287.95 54.4902 2288.67 54.0319L2305.07 43.7643L2293.66 39.2264L2284.02 45.2311C2281.78 46.6062 2281.02 49.7232 2282.33 52.1525C2283.17 53.8027 2284.74 54.7194 2286.34 54.7194Z" fill="#F9BA08"/>
<path d="M2302.75 44.4519C2304.35 44.4519 2305.92 43.5351 2306.8 41.9308C2308.07 39.5014 2307.31 36.4303 2305.11 35.0094L2288.71 24.7877C2286.47 23.4125 2283.64 24.2376 2282.33 26.6211C2281.06 29.0505 2281.82 32.1216 2284.02 33.5426L2300.42 43.7643C2301.14 44.2227 2301.94 44.4519 2302.75 44.4519Z" fill="#00A150"/>
</g>
<path fill-rule="evenodd" clip-rule="evenodd" d="M2228 25H2036V55H2052V68H2208V55H2228V25ZM2208 55V34H2052V55H2208Z" fill="#D9D9D9"/>
<g clip-path="url(#clip7_39_800)">
<path d="M2550.93 37.4556L2560.4 31.5426C2562.64 30.1675 2563.4 27.0505 2562.09 24.6211C2560.82 22.1918 2557.94 21.3667 2555.7 22.7876L2539.39 33.0094L2550.93 37.4556Z" fill="#E84336"/>
<path d="M2558.07 52.7194C2559.68 52.7194 2561.24 51.8027 2562.13 50.1984C2563.4 47.769 2562.64 44.6979 2560.44 43.2769L2544.04 33.0094C2541.8 31.6342 2538.97 32.4593 2537.66 34.8429C2536.39 37.2722 2537.15 40.3433 2539.35 41.7643L2555.7 52.0319C2556.47 52.4902 2557.27 52.7194 2558.07 52.7194Z" fill="#4282F2"/>
<path d="M2574.34 52.7194C2575.15 52.7194 2575.95 52.4902 2576.67 52.0319L2593.07 41.7643L2581.66 37.2264L2572.02 43.2311C2569.78 44.6062 2569.02 47.7232 2570.33 50.1525C2571.17 51.8027 2572.74 52.7194 2574.34 52.7194Z" fill="#F9BA08"/>
<path d="M2590.75 42.4519C2592.35 42.4519 2593.92 41.5351 2594.8 39.9308C2596.07 37.5014 2595.31 34.4303 2593.11 33.0094L2576.71 22.7877C2574.47 21.4125 2571.64 22.2376 2570.33 24.6211C2569.06 27.0505 2569.82 30.1216 2572.02 31.5426L2588.42 41.7643C2589.14 42.2227 2589.94 42.4519 2590.75 42.4519Z" fill="#00A150"/>
</g>
<path fill-rule="evenodd" clip-rule="evenodd" d="M2516 23H2324V53H2340V66H2496V53H2516V23ZM2496 53V32H2340V53H2496Z" fill="#D9D9D9"/>
<g clip-path="url(#clip8_39_800)">
<path d="M2838.93 35.4556L2848.4 29.5426C2850.64 28.1675 2851.4 25.0505 2850.09 22.6211C2848.82 20.1918 2845.94 19.3667 2843.7 20.7876L2827.39 31.0094L2838.93 35.4556Z" fill="#E84336"/>
<path d="M2846.07 50.7194C2847.68 50.7194 2849.24 49.8027 2850.13 48.1984C2851.4 45.769 2850.64 42.6979 2848.44 41.2769L2832.04 31.0094C2829.8 29.6342 2826.97 30.4593 2825.66 32.8429C2824.39 35.2722 2825.15 38.3433 2827.35 39.7643L2843.7 50.0319C2844.47 50.4902 2845.27 50.7194 2846.07 50.7194Z" fill="#4282F2"/>
<path d="M2862.34 50.7194C2863.15 50.7194 2863.95 50.4902 2864.67 50.0319L2881.07 39.7643L2869.66 35.2264L2860.02 41.2311C2857.78 42.6062 2857.02 45.7232 2858.33 48.1525C2859.17 49.8027 2860.74 50.7194 2862.34 50.7194Z" fill="#F9BA08"/>
<path d="M2878.75 40.4519C2880.35 40.4519 2881.92 39.5351 2882.8 37.9308C2884.07 35.5014 2883.31 32.4303 2881.11 31.0094L2864.71 20.7877C2862.47 19.4125 2859.64 20.2376 2858.33 22.6211C2857.06 25.0505 2857.82 28.1216 2860.02 29.5426L2876.42 39.7643C2877.14 40.2227 2877.94 40.4519 2878.75 40.4519Z" fill="#00A150"/>
</g>
<path fill-rule="evenodd" clip-rule="evenodd" d="M2804 21H2612V51H2628V64H2784V51H2804V21ZM2784 51V30H2628V51H2784Z" fill="#D9D9D9"/>
<g clip-path="url(#clip9_39_800)">
<path d="M3126.93 33.4556L3136.4 27.5426C3138.64 26.1675 3139.4 23.0505 3138.09 20.6211C3136.82 18.1918 3133.94 17.3667 3131.7 18.7876L3115.39 29.0094L3126.93 33.4556Z" fill="#E84336"/>
<path d="M3134.07 48.7194C3135.68 48.7194 3137.24 47.8027 3138.13 46.1984C3139.4 43.769 3138.64 40.6979 3136.44 39.2769L3120.04 29.0094C3117.8 27.6342 3114.97 28.4593 3113.66 30.8429C3112.39 33.2722 3113.15 36.3433 3115.35 37.7643L3131.7 48.0319C3132.47 48.4902 3133.27 48.7194 3134.07 48.7194Z" fill="#4282F2"/>
<path d="M3150.34 48.7194C3151.15 48.7194 3151.95 48.4902 3152.67 48.0319L3169.07 37.7643L3157.66 33.2264L3148.02 39.2311C3145.78 40.6062 3145.02 43.7232 3146.33 46.1525C3147.17 47.8027 3148.74 48.7194 3150.34 48.7194Z" fill="#F9BA08"/>
<path d="M3166.75 38.4519C3168.35 38.4519 3169.92 37.5351 3170.8 35.9308C3172.07 33.5014 3171.31 30.4303 3169.11 29.0094L3152.71 18.7877C3150.47 17.4125 3147.64 18.2376 3146.33 20.6211C3145.06 23.0505 3145.82 26.1216 3148.02 27.5426L3164.42 37.7643C3165.14 38.2227 3165.94 38.4519 3166.75 38.4519Z" fill="#00A150"/>
</g>
<path fill-rule="evenodd" clip-rule="evenodd" d="M3092 19H2900V49H2916V62H3072V49H3092V19ZM3072 49V28H2916V49H3072Z" fill="#D9D9D9"/>
<g clip-path="url(#clip10_39_800)">
<path d="M3414.93 31.4556L3424.4 25.5426C3426.64 24.1675 3427.4 21.0505 3426.09 18.6211C3424.82 16.1918 3421.94 15.3667 3419.7 16.7876L3403.39 27.0094L3414.93 31.4556Z" fill="#E84336"/>
<path d="M3422.07 46.7194C3423.68 46.7194 3425.24 45.8027 3426.13 44.1984C3427.4 41.769 3426.64 38.6979 3424.44 37.2769L3408.04 27.0094C3405.8 25.6342 3402.97 26.4593 3401.66 28.8429C3400.39 31.2722 3401.15 34.3433 3403.35 35.7643L3419.7 46.0319C3420.47 46.4902 3421.27 46.7194 3422.07 46.7194Z" fill="#4282F2"/>
<path d="M3438.34 46.7194C3439.15 46.7194 3439.95 46.4902 3440.67 46.0319L3457.07 35.7643L3445.66 31.2264L3436.02 37.2311C3433.78 38.6062 3433.02 41.7232 3434.33 44.1525C3435.17 45.8027 3436.74 46.7194 3438.34 46.7194Z" fill="#F9BA08"/>
<path d="M3454.75 36.4519C3456.35 36.4519 3457.92 35.5351 3458.8 33.9308C3460.07 31.5014 3459.31 28.4303 3457.11 27.0094L3440.71 16.7877C3438.47 15.4125 3435.64 16.2376 3434.33 18.6211C3433.06 21.0505 3433.82 24.1216 3436.02 25.5426L3452.42 35.7643C3453.14 36.2227 3453.94 36.4519 3454.75 36.4519Z" fill="#00A150"/>
</g>
<path fill-rule="evenodd" clip-rule="evenodd" d="M3380 17H3188V47H3204V60H3360V47H3380V17ZM3360 47V26H3204V47H3360Z" fill="#D9D9D9"/>
<g clip-path="url(#clip11_39_800)">
<path d="M1974.93 46.4556L1984.4 40.5426C1986.64 39.1675 1987.4 36.0505 1986.09 33.6211C1984.82 31.1918 1981.94 30.3667 1979.7 31.7876L1963.39 42.0094L1974.93 46.4556Z" fill="#E84336"/>
<path d="M1982.07 61.7194C1983.68 61.7194 1985.24 60.8027 1986.13 59.1984C1987.4 56.769 1986.64 53.6979 1984.44 52.2769L1968.04 42.0094C1965.8 40.6342 1962.97 41.4593 1961.66 43.8429C1960.39 46.2722 1961.15 49.3433 1963.35 50.7643L1979.7 61.0319C1980.47 61.4902 1981.27 61.7194 1982.07 61.7194Z" fill="#4282F2"/>
<path d="M1998.34 61.7194C1999.15 61.7194 1999.95 61.4902 2000.67 61.0319L2017.07 50.7643L2005.66 46.2264L1996.02 52.2311C1993.78 53.6062 1993.02 56.7232 1994.33 59.1525C1995.17 60.8027 1996.74 61.7194 1998.34 61.7194Z" fill="#F9BA08"/>
<path d="M2014.75 51.4519C2016.35 51.4519 2017.92 50.5351 2018.8 48.9308C2020.07 46.5014 2019.31 43.4303 2017.11 42.0094L2000.71 31.7877C1998.47 30.4125 1995.64 31.2376 1994.33 33.6211C1993.06 36.0505 1993.82 39.1216 1996.02 40.5426L2012.42 50.7643C2013.14 51.2227 2013.94 51.4519 2014.75 51.4519Z" fill="#00A150"/>
</g>
<path fill-rule="evenodd" clip-rule="evenodd" d="M1940 32H1748V62H1764V75H1920V62H1940V32ZM1920 62V41H1764V62H1920Z" fill="#D9D9D9"/>
<g clip-path="url(#clip12_39_800)">
<path d="M4009.93 24.4556L4019.4 18.5426C4021.64 17.1675 4022.4 14.0505 4021.09 11.6211C4019.82 9.19176 4016.94 8.36668 4014.7 9.78764L3998.39 20.0094L4009.93 24.4556Z" fill="#E84336"/>
<path d="M4017.07 39.7194C4018.68 39.7194 4020.24 38.8027 4021.13 37.1984C4022.4 34.769 4021.64 31.6979 4019.44 30.2769L4003.04 20.0094C4000.8 18.6342 3997.97 19.4593 3996.66 21.8429C3995.39 24.2722 3996.15 27.3433 3998.35 28.7643L4014.7 39.0319C4015.47 39.4902 4016.27 39.7194 4017.07 39.7194Z" fill="#4282F2"/>
<path d="M4033.34 39.7194C4034.15 39.7194 4034.95 39.4902 4035.67 39.0319L4052.07 28.7643L4040.66 24.2264L4031.02 30.2311C4028.78 31.6062 4028.02 34.7232 4029.33 37.1525C4030.17 38.8027 4031.74 39.7194 4033.34 39.7194Z" fill="#F9BA08"/>
<path d="M4049.75 29.4519C4051.35 29.4519 4052.92 28.5351 4053.8 26.9308C4055.07 24.5014 4054.31 21.4303 4052.11 20.0094L4035.71 9.78766C4033.47 8.41254 4030.64 9.23761 4029.33 11.6211C4028.06 14.0505 4028.82 17.1216 4031.02 18.5426L4047.42 28.7643C4048.14 29.2227 4048.94 29.4519 4049.75 29.4519Z" fill="#00A150"/>
</g>
<path fill-rule="evenodd" clip-rule="evenodd" d="M3975 10H3783V40H3799V53H3955V40H3975V10ZM3955 40V19H3799V40H3955Z" fill="#D9D9D9"/>
<g clip-path="url(#clip13_39_800)">
<path d="M4297.93 22.4556L4307.4 16.5426C4309.64 15.1675 4310.4 12.0505 4309.09 9.62113C4307.82 7.19176 4304.94 6.36668 4302.7 7.78764L4286.39 18.0094L4297.93 22.4556Z" fill="#E84336"/>
<path d="M4305.07 37.7194C4306.68 37.7194 4308.24 36.8027 4309.13 35.1984C4310.4 32.769 4309.64 29.6979 4307.44 28.2769L4291.04 18.0094C4288.8 16.6342 4285.97 17.4593 4284.66 19.8429C4283.39 22.2722 4284.15 25.3433 4286.35 26.7643L4302.7 37.0319C4303.47 37.4902 4304.27 37.7194 4305.07 37.7194Z" fill="#4282F2"/>
<path d="M4321.34 37.7194C4322.15 37.7194 4322.95 37.4902 4323.67 37.0319L4340.07 26.7643L4328.66 22.2264L4319.02 28.2311C4316.78 29.6062 4316.02 32.7232 4317.33 35.1525C4318.17 36.8027 4319.74 37.7194 4321.34 37.7194Z" fill="#F9BA08"/>
<path d="M4337.75 27.4519C4339.35 27.4519 4340.92 26.5351 4341.8 24.9308C4343.07 22.5014 4342.31 19.4303 4340.11 18.0094L4323.71 7.78766C4321.47 6.41254 4318.64 7.23761 4317.33 9.62115C4316.06 12.0505 4316.82 15.1216 4319.02 16.5426L4335.42 26.7643C4336.14 27.2227 4336.94 27.4519 4337.75 27.4519Z" fill="#00A150"/>
</g>
<path fill-rule="evenodd" clip-rule="evenodd" d="M4263 8H4071V38H4087V51H4243V38H4263V8ZM4243 38V17H4087V38H4243Z" fill="#D9D9D9"/>
<g clip-path="url(#clip14_39_800)">
<path d="M4585.93 20.4556L4595.4 14.5426C4597.64 13.1675 4598.4 10.0505 4597.09 7.62113C4595.82 5.19176 4592.94 4.36668 4590.7 5.78764L4574.39 16.0094L4585.93 20.4556Z" fill="#E84336"/>
<path d="M4593.07 35.7194C4594.68 35.7194 4596.24 34.8027 4597.13 33.1984C4598.4 30.769 4597.64 27.6979 4595.44 26.2769L4579.04 16.0094C4576.8 14.6342 4573.97 15.4593 4572.66 17.8429C4571.39 20.2722 4572.15 23.3433 4574.35 24.7643L4590.7 35.0319C4591.47 35.4902 4592.27 35.7194 4593.07 35.7194Z" fill="#4282F2"/>
<path d="M4609.34 35.7194C4610.15 35.7194 4610.95 35.4902 4611.67 35.0319L4628.07 24.7643L4616.66 20.2264L4607.02 26.2311C4604.78 27.6062 4604.02 30.7232 4605.33 33.1525C4606.17 34.8027 4607.74 35.7194 4609.34 35.7194Z" fill="#F9BA08"/>
<path d="M4625.75 25.4519C4627.35 25.4519 4628.92 24.5351 4629.8 22.9308C4631.07 20.5014 4630.31 17.4303 4628.11 16.0094L4611.71 5.78766C4609.47 4.41254 4606.64 5.23761 4605.33 7.62115C4604.06 10.0505 4604.82 13.1216 4607.02 14.5426L4623.42 24.7643C4624.14 25.2227 4624.94 25.4519 4625.75 25.4519Z" fill="#00A150"/>
</g>
<path fill-rule="evenodd" clip-rule="evenodd" d="M4551 6H4359V36H4375V49H4531V36H4551V6ZM4531 36V15H4375V36H4531Z" fill="#D9D9D9"/>
<g clip-path="url(#clip15_39_800)">
<path d="M4873.93 18.4556L4883.4 12.5426C4885.64 11.1675 4886.4 8.05051 4885.09 5.62113C4883.82 3.19176 4880.94 2.36668 4878.7 3.78764L4862.39 14.0094L4873.93 18.4556Z" fill="#E84336"/>
<path d="M4881.07 33.7194C4882.68 33.7194 4884.24 32.8027 4885.13 31.1984C4886.4 28.769 4885.64 25.6979 4883.44 24.2769L4867.04 14.0094C4864.8 12.6342 4861.97 13.4593 4860.66 15.8429C4859.39 18.2722 4860.15 21.3433 4862.35 22.7643L4878.7 33.0319C4879.47 33.4902 4880.27 33.7194 4881.07 33.7194Z" fill="#4282F2"/>
<path d="M4897.34 33.7194C4898.15 33.7194 4898.95 33.4902 4899.67 33.0319L4916.07 22.7643L4904.66 18.2264L4895.02 24.2311C4892.78 25.6062 4892.02 28.7232 4893.33 31.1525C4894.17 32.8027 4895.74 33.7194 4897.34 33.7194Z" fill="#F9BA08"/>
<path d="M4913.75 23.4519C4915.35 23.4519 4916.92 22.5351 4917.8 20.9308C4919.07 18.5014 4918.31 15.4303 4916.11 14.0094L4899.71 3.78766C4897.47 2.41254 4894.64 3.23761 4893.33 5.62115C4892.06 8.05053 4892.82 11.1216 4895.02 12.5426L4911.42 22.7643C4912.14 23.2227 4912.94 23.4519 4913.75 23.4519Z" fill="#00A150"/>
</g>
<path fill-rule="evenodd" clip-rule="evenodd" d="M4839 4H4647V34H4663V47H4819V34H4839V4ZM4819 34V13H4663V34H4819Z" fill="#D9D9D9"/>
<g clip-path="url(#clip16_39_800)">
<path d="M5161.93 16.4556L5171.4 10.5426C5173.64 9.16745 5174.4 6.05051 5173.09 3.62113C5171.82 1.19176 5168.94 0.366684 5166.7 1.78764L5150.39 12.0094L5161.93 16.4556Z" fill="#E84336"/>
<path d="M5169.07 31.7194C5170.68 31.7194 5172.24 30.8027 5173.13 29.1984C5174.4 26.769 5173.64 23.6979 5171.44 22.2769L5155.04 12.0094C5152.8 10.6342 5149.97 11.4593 5148.66 13.8429C5147.39 16.2722 5148.15 19.3433 5150.35 20.7643L5166.7 31.0319C5167.47 31.4902 5168.27 31.7194 5169.07 31.7194Z" fill="#4282F2"/>
<path d="M5185.34 31.7194C5186.15 31.7194 5186.95 31.4902 5187.67 31.0319L5204.07 20.7643L5192.66 16.2264L5183.02 22.2311C5180.78 23.6062 5180.02 26.7232 5181.33 29.1525C5182.17 30.8027 5183.74 31.7194 5185.34 31.7194Z" fill="#F9BA08"/>
<path d="M5201.75 21.4519C5203.35 21.4519 5204.92 20.5351 5205.8 18.9308C5207.07 16.5014 5206.31 13.4303 5204.11 12.0094L5187.71 1.78766C5185.47 0.412536 5182.64 1.23761 5181.33 3.62115C5180.06 6.05053 5180.82 9.12163 5183.02 10.5426L5199.42 20.7643C5200.14 21.2227 5200.94 21.4519 5201.75 21.4519Z" fill="#00A150"/>
</g>
<path fill-rule="evenodd" clip-rule="evenodd" d="M5127 2H4935V32H4951V45H5107V32H5127V2ZM5107 32V11H4951V32H5107Z" fill="#D9D9D9"/>
<g clip-path="url(#clip17_39_800)">
<path d="M3721.93 31.4556L3731.4 25.5426C3733.64 24.1675 3734.4 21.0505 3733.09 18.6211C3731.82 16.1918 3728.94 15.3667 3726.7 16.7876L3710.39 27.0094L3721.93 31.4556Z" fill="#E84336"/>
<path d="M3729.07 46.7194C3730.68 46.7194 3732.24 45.8027 3733.13 44.1984C3734.4 41.769 3733.64 38.6979 3731.44 37.2769L3715.04 27.0094C3712.8 25.6342 3709.97 26.4593 3708.66 28.8429C3707.39 31.2722 3708.15 34.3433 3710.35 35.7643L3726.7 46.0319C3727.47 46.4902 3728.27 46.7194 3729.07 46.7194Z" fill="#4282F2"/>
<path d="M3745.34 46.7194C3746.15 46.7194 3746.95 46.4902 3747.67 46.0319L3764.07 35.7643L3752.66 31.2264L3743.02 37.2311C3740.78 38.6062 3740.02 41.7232 3741.33 44.1525C3742.17 45.8027 3743.74 46.7194 3745.34 46.7194Z" fill="#F9BA08"/>
<path d="M3761.75 36.4519C3763.35 36.4519 3764.92 35.5351 3765.8 33.9308C3767.07 31.5014 3766.31 28.4303 3764.11 27.0094L3747.71 16.7877C3745.47 15.4125 3742.64 16.2376 3741.33 18.6211C3740.06 21.0505 3740.82 24.1216 3743.02 25.5426L3759.42 35.7643C3760.14 36.2227 3760.94 36.4519 3761.75 36.4519Z" fill="#00A150"/>
</g>
<path fill-rule="evenodd" clip-rule="evenodd" d="M3687 17H3495V47H3511V60H3667V47H3687V17ZM3667 47V26H3511V47H3667Z" fill="#D9D9D9"/>
<defs>
<clipPath id="clip0_39_800">
<rect width="60" height="33" fill="white" transform="translate(500 36)"/>
</clipPath>
<clipPath id="clip1_39_800">
<rect width="60" height="33" fill="white" transform="translate(788 34)"/>
</clipPath>
<clipPath id="clip2_39_800">
<rect width="60" height="33" fill="white" transform="translate(1076 32)"/>
</clipPath>
<clipPath id="clip3_39_800">
<rect width="60" height="33" fill="white" transform="translate(1364 30)"/>
</clipPath>
<clipPath id="clip4_39_800">
<rect width="60" height="33" fill="white" transform="translate(1652 28)"/>
</clipPath>
<clipPath id="clip5_39_800">
<rect width="60" height="33" fill="white" transform="translate(212 43)"/>
</clipPath>
<clipPath id="clip6_39_800">
<rect width="60" height="33" fill="white" transform="translate(2248 23)"/>
</clipPath>
<clipPath id="clip7_39_800">
<rect width="60" height="33" fill="white" transform="translate(2536 21)"/>
</clipPath>
<clipPath id="clip8_39_800">
<rect width="60" height="33" fill="white" transform="translate(2824 19)"/>
</clipPath>
<clipPath id="clip9_39_800">
<rect width="60" height="33" fill="white" transform="translate(3112 17)"/>
</clipPath>
<clipPath id="clip10_39_800">
<rect width="60" height="33" fill="white" transform="translate(3400 15)"/>
</clipPath>
<clipPath id="clip11_39_800">
<rect width="60" height="33" fill="white" transform="translate(1960 30)"/>
</clipPath>
<clipPath id="clip12_39_800">
<rect width="60" height="33" fill="white" transform="translate(3995 8)"/>
</clipPath>
<clipPath id="clip13_39_800">
<rect width="60" height="33" fill="white" transform="translate(4283 6)"/>
</clipPath>
<clipPath id="clip14_39_800">
<rect width="60" height="33" fill="white" transform="translate(4571 4)"/>
</clipPath>
<clipPath id="clip15_39_800">
<rect width="60" height="33" fill="white" transform="translate(4859 2)"/>
</clipPath>
<clipPath id="clip16_39_800">
<rect width="60" height="33" fill="white" transform="translate(5147)"/>
</clipPath>
<clipPath id="clip17_39_800">
<rect width="60" height="33" fill="white" transform="translate(3707 15)"/>
</clipPath>
</defs>
</svg>
