<svg width="5207" height="88" fill="none" xmlns="http://www.w3.org/2000/svg">
  <g clip-path="url(#a)">
    <path d="m514.928 52.456 9.468-5.913c2.24-1.376 3.001-4.492 1.691-6.922-1.268-2.43-4.143-3.254-6.383-1.833l-16.316 10.221 11.54 4.447Z" fill="#E84336"/>
    <path d="M522.071 67.72c1.606 0 3.17-.917 4.058-2.522 1.268-2.429.507-5.5-1.691-6.921l-16.4-10.268c-2.24-1.375-5.072-.55-6.383 1.834-1.268 2.43-.507 5.5 1.691 6.921l16.358 10.268c.761.458 1.564.687 2.367.687Z" fill="#4282F2"/>
    <path d="M538.345 67.72c.803 0 1.606-.23 2.325-.688l16.4-10.268-11.413-4.538-9.637 6.005c-2.24 1.375-3.001 4.492-1.691 6.922.846 1.65 2.41 2.566 4.016 2.566Z" fill="#F9BA08"/>
    <path d="M554.745 57.452c1.606 0 3.17-.917 4.058-2.521 1.268-2.43.507-5.5-1.691-6.922l-16.4-10.221c-2.24-1.375-5.072-.55-6.383 1.833-1.268 2.43-.507 5.5 1.691 6.922l16.4 10.221a4.314 4.314 0 0 0 2.325.688Z" fill="#00A150"/>
  </g>
  <path fill-rule="evenodd" clip-rule="evenodd" d="M480 38H288v30h16v13h156V68h20V38Zm-20 30V47H304v21h156Z" fill="#D9D9D9"/>
  <g clip-path="url(#b)">
    <path d="m802.928 50.456 9.468-5.913c2.24-1.376 3.001-4.492 1.691-6.922-1.268-2.43-4.143-3.254-6.383-1.833l-16.316 10.221 11.54 4.447Z" fill="#E84336"/>
    <path d="M810.071 65.72c1.606 0 3.17-.917 4.058-2.522 1.268-2.429.507-5.5-1.691-6.921l-16.4-10.268c-2.24-1.375-5.072-.55-6.383 1.834-1.268 2.43-.507 5.5 1.691 6.921l16.358 10.268c.761.458 1.564.687 2.367.687Z" fill="#4282F2"/>
    <path d="M826.345 65.72c.803 0 1.606-.23 2.325-.688l16.4-10.268-11.413-4.538-9.637 6.005c-2.24 1.375-3.001 4.492-1.691 6.922.846 1.65 2.41 2.566 4.016 2.566Z" fill="#F9BA08"/>
    <path d="M842.745 55.452c1.606 0 3.17-.917 4.058-2.521 1.268-2.43.507-5.5-1.691-6.922l-16.4-10.221c-2.24-1.375-5.072-.55-6.383 1.833-1.268 2.43-.507 5.5 1.691 6.922l16.4 10.221a4.314 4.314 0 0 0 2.325.688Z" fill="#00A150"/>
  </g>
  <path fill-rule="evenodd" clip-rule="evenodd" d="M768 36H576v30h16v13h156V66h20V36Zm-20 30V45H592v21h156Z" fill="#D9D9D9"/>
  <g clip-path="url(#c)">
    <path d="m1090.93 48.456 9.47-5.913c2.24-1.376 3-4.492 1.69-6.922-1.27-2.43-4.15-3.254-6.39-1.833l-16.31 10.221 11.54 4.447Z" fill="#E84336"/>
    <path d="M1098.07 63.72c1.61 0 3.17-.917 4.06-2.522 1.27-2.429.51-5.5-1.69-6.921l-16.4-10.268c-2.24-1.375-5.07-.55-6.38 1.834-1.27 2.43-.51 5.5 1.69 6.921l16.35 10.268c.77.458 1.57.687 2.37.687Z" fill="#4282F2"/>
    <path d="M1114.34 63.72c.81 0 1.61-.23 2.33-.688l16.4-10.268-11.41-4.538-9.64 6.005c-2.24 1.375-3 4.492-1.69 6.922.84 1.65 2.41 2.566 4.01 2.566Z" fill="#F9BA08"/>
    <path d="M1130.75 53.452c1.6 0 3.17-.917 4.05-2.521 1.27-2.43.51-5.5-1.69-6.922l-16.4-10.221c-2.24-1.375-5.07-.55-6.38 1.833-1.27 2.43-.51 5.5 1.69 6.922l16.4 10.221c.72.459 1.52.688 2.33.688Z" fill="#00A150"/>
  </g>
  <path fill-rule="evenodd" clip-rule="evenodd" d="M1056 34H864v30h16v13h156V64h20V34Zm-20 30V43H880v21h156Z" fill="#D9D9D9"/>
  <g clip-path="url(#d)">
    <path d="m1378.93 46.456 9.47-5.913c2.24-1.376 3-4.492 1.69-6.922-1.27-2.43-4.15-3.254-6.39-1.833l-16.31 10.221 11.54 4.447Z" fill="#E84336"/>
    <path d="M1386.07 61.72c1.61 0 3.17-.917 4.06-2.522 1.27-2.429.51-5.5-1.69-6.921l-16.4-10.268c-2.24-1.375-5.07-.55-6.38 1.834-1.27 2.43-.51 5.5 1.69 6.921l16.35 10.268c.77.458 1.57.687 2.37.687Z" fill="#4282F2"/>
    <path d="M1402.34 61.72c.81 0 1.61-.23 2.33-.688l16.4-10.268-11.41-4.538-9.64 6.005c-2.24 1.375-3 4.492-1.69 6.922.84 1.65 2.41 2.566 4.01 2.566Z" fill="#F9BA08"/>
    <path d="M1418.75 51.452c1.6 0 3.17-.917 4.05-2.521 1.27-2.43.51-5.5-1.69-6.922l-16.4-10.221c-2.24-1.375-5.07-.55-6.38 1.833-1.27 2.43-.51 5.5 1.69 6.922l16.4 10.221c.72.459 1.52.688 2.33.688Z" fill="#00A150"/>
  </g>
  <path fill-rule="evenodd" clip-rule="evenodd" d="M1344 32h-192v30h16v13h156V62h20V32Zm-20 30V41h-156v21h156Z" fill="#D9D9D9"/>
  <g clip-path="url(#e)">
    <path d="m1666.93 44.456 9.47-5.913c2.24-1.376 3-4.492 1.69-6.922-1.27-2.43-4.15-3.254-6.39-1.833l-16.31 10.221 11.54 4.447Z" fill="#E84336"/>
    <path d="M1674.07 59.72c1.61 0 3.17-.917 4.06-2.522 1.27-2.429.51-5.5-1.69-6.921l-16.4-10.268c-2.24-1.375-5.07-.55-6.38 1.834-1.27 2.43-.51 5.5 1.69 6.921l16.35 10.268c.77.458 1.57.687 2.37.687Z" fill="#4282F2"/>
    <path d="M1690.34 59.72c.81 0 1.61-.23 2.33-.688l16.4-10.268-11.41-4.538-9.64 6.005c-2.24 1.375-3 4.492-1.69 6.922.84 1.65 2.41 2.566 4.01 2.566Z" fill="#F9BA08"/>
    <path d="M1706.75 49.452c1.6 0 3.17-.917 4.05-2.521 1.27-2.43.51-5.5-1.69-6.922l-16.4-10.221c-2.24-1.375-5.07-.55-6.38 1.833-1.27 2.43-.51 5.5 1.69 6.922l16.4 10.221c.72.459 1.52.688 2.33.688Z" fill="#00A150"/>
  </g>
  <path fill-rule="evenodd" clip-rule="evenodd" d="M1632 30h-192v30h16v13h156V60h20V30Zm-20 30V39h-156v21h156Z" fill="#D9D9D9"/>
  <g clip-path="url(#f)">
    <path d="m226.928 59.456 9.468-5.913c2.24-1.376 3.001-4.492 1.691-6.922-1.268-2.43-4.143-3.254-6.383-1.833l-16.316 10.221 11.54 4.447Z" fill="#E84336"/>
    <path d="M234.071 74.72c1.606 0 3.17-.917 4.058-2.522 1.268-2.429.507-5.5-1.691-6.921l-16.4-10.268c-2.24-1.375-5.072-.55-6.383 1.834-1.268 2.43-.507 5.5 1.691 6.921l16.358 10.268c.761.458 1.564.687 2.367.687Z" fill="#4282F2"/>
    <path d="M250.345 74.72c.803 0 1.606-.23 2.325-.688l16.4-10.268-11.413-4.538-9.637 6.005c-2.24 1.375-3.001 4.492-1.691 6.922.846 1.65 2.41 2.566 4.016 2.566Z" fill="#F9BA08"/>
    <path d="M266.745 64.452c1.606 0 3.17-.917 4.058-2.521 1.268-2.43.507-5.5-1.691-6.922l-16.4-10.221c-2.24-1.375-5.072-.55-6.383 1.833-1.268 2.43-.507 5.5 1.691 6.922l16.4 10.221a4.314 4.314 0 0 0 2.325.688Z" fill="#00A150"/>
  </g>
  <path fill-rule="evenodd" clip-rule="evenodd" d="M192 45H0v30h16v13h156V75h20V45Zm-20 30V54H16v21h156Z" fill="#D9D9D9"/>
  <g clip-path="url(#g)">
    <path d="m2262.93 39.456 9.47-5.913c2.24-1.376 3-4.492 1.69-6.922-1.27-2.43-4.15-3.254-6.39-1.833l-16.31 10.221 11.54 4.447Z" fill="#E84336"/>
    <path d="M2270.07 54.72c1.61 0 3.17-.917 4.06-2.522 1.27-2.429.51-5.5-1.69-6.921l-16.4-10.268c-2.24-1.375-5.07-.55-6.38 1.834-1.27 2.43-.51 5.5 1.69 6.921l16.35 10.268c.77.458 1.57.687 2.37.687Z" fill="#4282F2"/>
    <path d="M2286.34 54.72c.81 0 1.61-.23 2.33-.688l16.4-10.268-11.41-4.538-9.64 6.005c-2.24 1.375-3 4.492-1.69 6.922.84 1.65 2.41 2.566 4.01 2.566Z" fill="#F9BA08"/>
    <path d="M2302.75 44.452c1.6 0 3.17-.917 4.05-2.521 1.27-2.43.51-5.5-1.69-6.922l-16.4-10.221c-2.24-1.375-5.07-.55-6.38 1.833-1.27 2.43-.51 5.5 1.69 6.922l16.4 10.221c.72.459 1.52.688 2.33.688Z" fill="#00A150"/>
  </g>
  <path fill-rule="evenodd" clip-rule="evenodd" d="M2228 25h-192v30h16v13h156V55h20V25Zm-20 30V34h-156v21h156Z" fill="#D9D9D9"/>
  <g clip-path="url(#h)">
    <path d="m2550.93 37.456 9.47-5.913c2.24-1.375 3-4.492 1.69-6.922-1.27-2.43-4.15-3.254-6.39-1.833l-16.31 10.221 11.54 4.447Z" fill="#E84336"/>
    <path d="M2558.07 52.72c1.61 0 3.17-.917 4.06-2.522 1.27-2.429.51-5.5-1.69-6.921l-16.4-10.268c-2.24-1.375-5.07-.55-6.38 1.834-1.27 2.43-.51 5.5 1.69 6.921l16.35 10.268c.77.458 1.57.687 2.37.687Z" fill="#4282F2"/>
    <path d="M2574.34 52.72c.81 0 1.61-.23 2.33-.688l16.4-10.268-11.41-4.538-9.64 6.005c-2.24 1.375-3 4.492-1.69 6.922.84 1.65 2.41 2.566 4.01 2.566Z" fill="#F9BA08"/>
    <path d="M2590.75 42.452c1.6 0 3.17-.917 4.05-2.521 1.27-2.43.51-5.5-1.69-6.922l-16.4-10.221c-2.24-1.375-5.07-.55-6.38 1.833-1.27 2.43-.51 5.5 1.69 6.922l16.4 10.221c.72.459 1.52.688 2.33.688Z" fill="#00A150"/>
  </g>
  <path fill-rule="evenodd" clip-rule="evenodd" d="M2516 23h-192v30h16v13h156V53h20V23Zm-20 30V32h-156v21h156Z" fill="#D9D9D9"/>
  <g clip-path="url(#i)">
    <path d="m2838.93 35.456 9.47-5.913c2.24-1.375 3-4.492 1.69-6.922-1.27-2.43-4.15-3.254-6.39-1.833l-16.31 10.221 11.54 4.447Z" fill="#E84336"/>
    <path d="M2846.07 50.72c1.61 0 3.17-.917 4.06-2.522 1.27-2.429.51-5.5-1.69-6.921l-16.4-10.268c-2.24-1.375-5.07-.55-6.38 1.834-1.27 2.43-.51 5.5 1.69 6.921l16.35 10.268c.77.458 1.57.687 2.37.687Z" fill="#4282F2"/>
    <path d="M2862.34 50.72c.81 0 1.61-.23 2.33-.688l16.4-10.268-11.41-4.538-9.64 6.005c-2.24 1.375-3 4.492-1.69 6.922.84 1.65 2.41 2.566 4.01 2.566Z" fill="#F9BA08"/>
    <path d="M2878.75 40.452c1.6 0 3.17-.917 4.05-2.521 1.27-2.43.51-5.5-1.69-6.922l-16.4-10.221c-2.24-1.375-5.07-.55-6.38 1.833-1.27 2.43-.51 5.5 1.69 6.922l16.4 10.221c.72.459 1.52.688 2.33.688Z" fill="#00A150"/>
  </g>
  <path fill-rule="evenodd" clip-rule="evenodd" d="M2804 21h-192v30h16v13h156V51h20V21Zm-20 30V30h-156v21h156Z" fill="#D9D9D9"/>
  <g clip-path="url(#j)">
    <path d="m3126.93 33.456 9.47-5.913c2.24-1.375 3-4.492 1.69-6.922-1.27-2.43-4.15-3.254-6.39-1.833l-16.31 10.221 11.54 4.447Z" fill="#E84336"/>
    <path d="M3134.07 48.72c1.61 0 3.17-.917 4.06-2.522 1.27-2.429.51-5.5-1.69-6.921l-16.4-10.268c-2.24-1.375-5.07-.55-6.38 1.834-1.27 2.43-.51 5.5 1.69 6.921l16.35 10.268c.77.458 1.57.687 2.37.687Z" fill="#4282F2"/>
    <path d="M3150.34 48.72c.81 0 1.61-.23 2.33-.688l16.4-10.268-11.41-4.538-9.64 6.005c-2.24 1.375-3 4.492-1.69 6.922.84 1.65 2.41 2.566 4.01 2.566Z" fill="#F9BA08"/>
    <path d="M3166.75 38.452c1.6 0 3.17-.917 4.05-2.521 1.27-2.43.51-5.5-1.69-6.922l-16.4-10.221c-2.24-1.375-5.07-.55-6.38 1.833-1.27 2.43-.51 5.5 1.69 6.922l16.4 10.221c.72.459 1.52.688 2.33.688Z" fill="#00A150"/>
  </g>
  <path fill-rule="evenodd" clip-rule="evenodd" d="M3092 19h-192v30h16v13h156V49h20V19Zm-20 30V28h-156v21h156Z" fill="#D9D9D9"/>
  <g clip-path="url(#k)">
    <path d="m3414.93 31.456 9.47-5.913c2.24-1.375 3-4.492 1.69-6.922-1.27-2.43-4.15-3.254-6.39-1.833l-16.31 10.221 11.54 4.447Z" fill="#E84336"/>
    <path d="M3422.07 46.72c1.61 0 3.17-.917 4.06-2.522 1.27-2.429.51-5.5-1.69-6.921l-16.4-10.268c-2.24-1.375-5.07-.55-6.38 1.834-1.27 2.43-.51 5.5 1.69 6.921l16.35 10.268c.77.458 1.57.687 2.37.687Z" fill="#4282F2"/>
    <path d="M3438.34 46.72c.81 0 1.61-.23 2.33-.688l16.4-10.268-11.41-4.538-9.64 6.005c-2.24 1.375-3 4.492-1.69 6.922.84 1.65 2.41 2.566 4.01 2.566Z" fill="#F9BA08"/>
    <path d="M3454.75 36.452c1.6 0 3.17-.917 4.05-2.521 1.27-2.43.51-5.5-1.69-6.922l-16.4-10.221c-2.24-1.376-5.07-.55-6.38 1.833-1.27 2.43-.51 5.5 1.69 6.922l16.4 10.221c.72.459 1.52.688 2.33.688Z" fill="#00A150"/>
  </g>
  <path fill-rule="evenodd" clip-rule="evenodd" d="M3380 17h-192v30h16v13h156V47h20V17Zm-20 30V26h-156v21h156Z" fill="#D9D9D9"/>
  <g clip-path="url(#l)">
    <path d="m1974.93 46.456 9.47-5.913c2.24-1.376 3-4.492 1.69-6.922-1.27-2.43-4.15-3.254-6.39-1.833l-16.31 10.221 11.54 4.447Z" fill="#E84336"/>
    <path d="M1982.07 61.72c1.61 0 3.17-.917 4.06-2.522 1.27-2.429.51-5.5-1.69-6.921l-16.4-10.268c-2.24-1.375-5.07-.55-6.38 1.834-1.27 2.43-.51 5.5 1.69 6.921l16.35 10.268c.77.458 1.57.687 2.37.687Z" fill="#4282F2"/>
    <path d="M1998.34 61.72c.81 0 1.61-.23 2.33-.688l16.4-10.268-11.41-4.538-9.64 6.005c-2.24 1.375-3 4.492-1.69 6.922.84 1.65 2.41 2.566 4.01 2.566Z" fill="#F9BA08"/>
    <path d="M2014.75 51.452c1.6 0 3.17-.917 4.05-2.521 1.27-2.43.51-5.5-1.69-6.922l-16.4-10.221c-2.24-1.375-5.07-.55-6.38 1.833-1.27 2.43-.51 5.5 1.69 6.922l16.4 10.221c.72.459 1.52.688 2.33.688Z" fill="#00A150"/>
  </g>
  <path fill-rule="evenodd" clip-rule="evenodd" d="M1940 32h-192v30h16v13h156V62h20V32Zm-20 30V41h-156v21h156Z" fill="#D9D9D9"/>
  <g clip-path="url(#m)">
    <path d="m4009.93 24.456 9.47-5.913c2.24-1.375 3-4.492 1.69-6.922-1.27-2.43-4.15-3.254-6.39-1.833l-16.31 10.221 11.54 4.447Z" fill="#E84336"/>
    <path d="M4017.07 39.72c1.61 0 3.17-.917 4.06-2.522 1.27-2.429.51-5.5-1.69-6.921l-16.4-10.268c-2.24-1.375-5.07-.55-6.38 1.834-1.27 2.43-.51 5.5 1.69 6.921l16.35 10.268c.77.458 1.57.687 2.37.687Z" fill="#4282F2"/>
    <path d="M4033.34 39.72c.81 0 1.61-.23 2.33-.688l16.4-10.268-11.41-4.538-9.64 6.005c-2.24 1.375-3 4.492-1.69 6.922.84 1.65 2.41 2.566 4.01 2.566Z" fill="#F9BA08"/>
    <path d="M4049.75 29.452c1.6 0 3.17-.917 4.05-2.521 1.27-2.43.51-5.5-1.69-6.922l-16.4-10.221c-2.24-1.375-5.07-.55-6.38 1.833-1.27 2.43-.51 5.5 1.69 6.922l16.4 10.221c.72.459 1.52.688 2.33.688Z" fill="#00A150"/>
  </g>
  <path fill-rule="evenodd" clip-rule="evenodd" d="M3975 10h-192v30h16v13h156V40h20V10Zm-20 30V19h-156v21h156Z" fill="#D9D9D9"/>
  <g clip-path="url(#n)">
    <path d="m4297.93 22.456 9.47-5.913c2.24-1.375 3-4.492 1.69-6.922-1.27-2.43-4.15-3.254-6.39-1.833l-16.31 10.221 11.54 4.447Z" fill="#E84336"/>
    <path d="M4305.07 37.72c1.61 0 3.17-.917 4.06-2.522 1.27-2.429.51-5.5-1.69-6.921l-16.4-10.268c-2.24-1.375-5.07-.55-6.38 1.834-1.27 2.43-.51 5.5 1.69 6.921l16.35 10.268c.77.458 1.57.687 2.37.687Z" fill="#4282F2"/>
    <path d="M4321.34 37.72c.81 0 1.61-.23 2.33-.688l16.4-10.268-11.41-4.538-9.64 6.005c-2.24 1.375-3 4.492-1.69 6.922.84 1.65 2.41 2.566 4.01 2.566Z" fill="#F9BA08"/>
    <path d="M4337.75 27.452c1.6 0 3.17-.917 4.05-2.521 1.27-2.43.51-5.5-1.69-6.922l-16.4-10.221c-2.24-1.375-5.07-.55-6.38 1.833-1.27 2.43-.51 5.5 1.69 6.922l16.4 10.221c.72.459 1.52.688 2.33.688Z" fill="#00A150"/>
  </g>
  <path fill-rule="evenodd" clip-rule="evenodd" d="M4263 8h-192v30h16v13h156V38h20V8Zm-20 30V17h-156v21h156Z" fill="#D9D9D9"/>
  <g clip-path="url(#o)">
    <path d="m4585.93 20.456 9.47-5.913c2.24-1.375 3-4.492 1.69-6.922-1.27-2.43-4.15-3.254-6.39-1.833l-16.31 10.221 11.54 4.447Z" fill="#E84336"/>
    <path d="M4593.07 35.72c1.61 0 3.17-.917 4.06-2.522 1.27-2.429.51-5.5-1.69-6.921l-16.4-10.268c-2.24-1.375-5.07-.55-6.38 1.834-1.27 2.43-.51 5.5 1.69 6.921l16.35 10.268c.77.458 1.57.687 2.37.687Z" fill="#4282F2"/>
    <path d="M4609.34 35.72c.81 0 1.61-.23 2.33-.688l16.4-10.268-11.41-4.538-9.64 6.005c-2.24 1.375-3 4.492-1.69 6.922.84 1.65 2.41 2.566 4.01 2.566Z" fill="#F9BA08"/>
    <path d="M4625.75 25.452c1.6 0 3.17-.917 4.05-2.521 1.27-2.43.51-5.5-1.69-6.922l-16.4-10.221c-2.24-1.375-5.07-.55-6.38 1.833-1.27 2.43-.51 5.5 1.69 6.922l16.4 10.221c.72.459 1.52.688 2.33.688Z" fill="#00A150"/>
  </g>
  <path fill-rule="evenodd" clip-rule="evenodd" d="M4551 6h-192v30h16v13h156V36h20V6Zm-20 30V15h-156v21h156Z" fill="#D9D9D9"/>
  <g clip-path="url(#p)">
    <path d="m4873.93 18.456 9.47-5.913c2.24-1.375 3-4.492 1.69-6.922-1.27-2.43-4.15-3.254-6.39-1.833l-16.31 10.221 11.54 4.447Z" fill="#E84336"/>
    <path d="M4881.07 33.72c1.61 0 3.17-.917 4.06-2.522 1.27-2.429.51-5.5-1.69-6.921l-16.4-10.268c-2.24-1.375-5.07-.55-6.38 1.834-1.27 2.43-.51 5.5 1.69 6.921l16.35 10.268c.77.458 1.57.687 2.37.687Z" fill="#4282F2"/>
    <path d="M4897.34 33.72c.81 0 1.61-.23 2.33-.688l16.4-10.268-11.41-4.538-9.64 6.005c-2.24 1.375-3 4.492-1.69 6.921.84 1.65 2.41 2.567 4.01 2.567Z" fill="#F9BA08"/>
    <path d="M4913.75 23.452c1.6 0 3.17-.917 4.05-2.521 1.27-2.43.51-5.5-1.69-6.922l-16.4-10.221c-2.24-1.375-5.07-.55-6.38 1.833-1.27 2.43-.51 5.5 1.69 6.922l16.4 10.221c.72.459 1.52.688 2.33.688Z" fill="#00A150"/>
  </g>
  <path fill-rule="evenodd" clip-rule="evenodd" d="M4839 4h-192v30h16v13h156V34h20V4Zm-20 30V13h-156v21h156Z" fill="#D9D9D9"/>
  <g clip-path="url(#q)">
    <path d="m5161.93 16.456 9.47-5.913c2.24-1.376 3-4.492 1.69-6.922-1.27-2.43-4.15-3.254-6.39-1.833l-16.31 10.221 11.54 4.447Z" fill="#E84336"/>
    <path d="M5169.07 31.72c1.61 0 3.17-.917 4.06-2.522 1.27-2.429.51-5.5-1.69-6.921l-16.4-10.268c-2.24-1.375-5.07-.55-6.38 1.834-1.27 2.43-.51 5.5 1.69 6.921l16.35 10.268c.77.458 1.57.687 2.37.687Z" fill="#4282F2"/>
    <path d="M5185.34 31.72c.81 0 1.61-.23 2.33-.688l16.4-10.268-11.41-4.538-9.64 6.005c-2.24 1.375-3 4.492-1.69 6.921.84 1.65 2.41 2.567 4.01 2.567Z" fill="#F9BA08"/>
    <path d="M5201.75 21.452c1.6 0 3.17-.917 4.05-2.521 1.27-2.43.51-5.5-1.69-6.922l-16.4-10.221c-2.24-1.375-5.07-.55-6.38 1.833-1.27 2.43-.51 5.5 1.69 6.922l16.4 10.221c.72.459 1.52.688 2.33.688Z" fill="#00A150"/>
  </g>
  <path fill-rule="evenodd" clip-rule="evenodd" d="M5127 2h-192v30h16v13h156V32h20V2Zm-20 30V11h-156v21h156Z" fill="#D9D9D9"/>
  <g clip-path="url(#r)">
    <path d="m3721.93 31.456 9.47-5.913c2.24-1.375 3-4.492 1.69-6.922-1.27-2.43-4.15-3.254-6.39-1.833l-16.31 10.221 11.54 4.447Z" fill="#E84336"/>
    <path d="M3729.07 46.72c1.61 0 3.17-.917 4.06-2.522 1.27-2.429.51-5.5-1.69-6.921l-16.4-10.268c-2.24-1.375-5.07-.55-6.38 1.834-1.27 2.43-.51 5.5 1.69 6.921l16.35 10.268c.77.458 1.57.687 2.37.687Z" fill="#4282F2"/>
    <path d="M3745.34 46.72c.81 0 1.61-.23 2.33-.688l16.4-10.268-11.41-4.538-9.64 6.005c-2.24 1.375-3 4.492-1.69 6.922.84 1.65 2.41 2.566 4.01 2.566Z" fill="#F9BA08"/>
    <path d="M3761.75 36.452c1.6 0 3.17-.917 4.05-2.521 1.27-2.43.51-5.5-1.69-6.922l-16.4-10.221c-2.24-1.376-5.07-.55-6.38 1.833-1.27 2.43-.51 5.5 1.69 6.922l16.4 10.221c.72.459 1.52.688 2.33.688Z" fill="#00A150"/>
  </g>
  <path fill-rule="evenodd" clip-rule="evenodd" d="M3687 17h-192v30h16v13h156V47h20V17Zm-20 30V26h-156v21h156Z" fill="#D9D9D9"/>
  <defs>
    <clipPath id="a">
      <path fill="#fff" transform="translate(500 36)" d="M0 0h60v33H0z"/>
    </clipPath>
    <clipPath id="b">
      <path fill="#fff" transform="translate(788 34)" d="M0 0h60v33H0z"/>
    </clipPath>
    <clipPath id="c">
      <path fill="#fff" transform="translate(1076 32)" d="M0 0h60v33H0z"/>
    </clipPath>
    <clipPath id="d">
      <path fill="#fff" transform="translate(1364 30)" d="M0 0h60v33H0z"/>
    </clipPath>
    <clipPath id="e">
      <path fill="#fff" transform="translate(1652 28)" d="M0 0h60v33H0z"/>
    </clipPath>
    <clipPath id="f">
      <path fill="#fff" transform="translate(212 43)" d="M0 0h60v33H0z"/>
    </clipPath>
    <clipPath id="g">
      <path fill="#fff" transform="translate(2248 23)" d="M0 0h60v33H0z"/>
    </clipPath>
    <clipPath id="h">
      <path fill="#fff" transform="translate(2536 21)" d="M0 0h60v33H0z"/>
    </clipPath>
    <clipPath id="i">
      <path fill="#fff" transform="translate(2824 19)" d="M0 0h60v33H0z"/>
    </clipPath>
    <clipPath id="j">
      <path fill="#fff" transform="translate(3112 17)" d="M0 0h60v33H0z"/>
    </clipPath>
    <clipPath id="k">
      <path fill="#fff" transform="translate(3400 15)" d="M0 0h60v33H0z"/>
    </clipPath>
    <clipPath id="l">
      <path fill="#fff" transform="translate(1960 30)" d="M0 0h60v33H0z"/>
    </clipPath>
    <clipPath id="m">
      <path fill="#fff" transform="translate(3995 8)" d="M0 0h60v33H0z"/>
    </clipPath>
    <clipPath id="n">
      <path fill="#fff" transform="translate(4283 6)" d="M0 0h60v33H0z"/>
    </clipPath>
    <clipPath id="o">
      <path fill="#fff" transform="translate(4571 4)" d="M0 0h60v33H0z"/>
    </clipPath>
    <clipPath id="p">
      <path fill="#fff" transform="translate(4859 2)" d="M0 0h60v33H0z"/>
    </clipPath>
    <clipPath id="q">
      <path fill="#fff" transform="translate(5147)" d="M0 0h60v33H0z"/>
    </clipPath>
    <clipPath id="r">
      <path fill="#fff" transform="translate(3707 15)" d="M0 0h60v33H0z"/>
    </clipPath>
  </defs>
</svg>
