<svg width="1930" height="76" viewBox="0 0 1930 76" fill="none" xmlns="http://www.w3.org/2000/svg">
<g clip-path="url(#clip0_434_530)">
<path d="M514.928 40.4558L524.396 34.5428C526.636 33.1677 527.397 30.0507 526.087 27.6213C524.819 25.192 521.945 24.3669 519.704 25.7879L503.388 36.0096L514.928 40.4558Z" fill="#E84336"/>
<path d="M522.071 55.7194C523.677 55.7194 525.241 54.8027 526.129 53.1984C527.397 50.769 526.636 47.6979 524.438 46.277L508.038 36.0094C505.798 34.6343 502.966 35.4593 501.655 37.8429C500.387 40.2723 501.148 43.3434 503.346 44.7643L519.704 55.0319C520.465 55.4903 521.268 55.7194 522.071 55.7194Z" fill="#4282F2"/>
<path d="M538.345 55.7196C539.148 55.7196 539.951 55.4904 540.67 55.032L557.07 44.7645L545.657 40.2266L536.02 46.2313C533.78 47.6064 533.019 50.7233 534.329 53.1527C535.175 54.8028 536.739 55.7196 538.345 55.7196Z" fill="#F9BA08"/>
<path d="M554.745 45.4519C556.351 45.4519 557.915 44.5352 558.803 42.9309C560.071 40.5015 559.31 37.4304 557.112 36.0094L540.712 25.7877C538.472 24.4126 535.639 25.2377 534.329 27.6212C533.061 30.0506 533.822 33.1217 536.02 34.5426L552.42 44.7644C553.139 45.2227 553.942 45.4519 554.745 45.4519Z" fill="#00A150"/>
</g>
<path fill-rule="evenodd" clip-rule="evenodd" d="M480 26H288V56H304V69H460V56H480V26ZM460 56V35H304V56H460Z" fill="#D9D9D9"/>
<g clip-path="url(#clip1_434_530)">
<path d="M802.928 38.4558L812.396 32.5428C814.636 31.1677 815.397 28.0507 814.087 25.6213C812.819 23.192 809.945 22.3669 807.704 23.7879L791.388 34.0096L802.928 38.4558Z" fill="#E84336"/>
<path d="M810.071 53.7194C811.677 53.7194 813.241 52.8027 814.129 51.1984C815.397 48.769 814.636 45.6979 812.438 44.277L796.038 34.0094C793.798 32.6343 790.966 33.4593 789.655 35.8429C788.387 38.2723 789.148 41.3434 791.346 42.7643L807.704 53.0319C808.465 53.4903 809.268 53.7194 810.071 53.7194Z" fill="#4282F2"/>
<path d="M826.345 53.7196C827.148 53.7196 827.951 53.4904 828.67 53.032L845.07 42.7645L833.657 38.2266L824.02 44.2313C821.78 45.6064 821.019 48.7233 822.329 51.1527C823.175 52.8028 824.739 53.7196 826.345 53.7196Z" fill="#F9BA08"/>
<path d="M842.745 43.4519C844.351 43.4519 845.915 42.5352 846.803 40.9309C848.071 38.5015 847.31 35.4304 845.112 34.0094L828.712 23.7877C826.472 22.4126 823.639 23.2377 822.329 25.6212C821.061 28.0506 821.822 31.1217 824.02 32.5426L840.42 42.7644C841.139 43.2227 841.942 43.4519 842.745 43.4519Z" fill="#00A150"/>
</g>
<path fill-rule="evenodd" clip-rule="evenodd" d="M768 24H576V54H592V67H748V54H768V24ZM748 54V33H592V54H748Z" fill="#D9D9D9"/>
<g clip-path="url(#clip2_434_530)">
<path d="M1090.93 36.4558L1100.4 30.5428C1102.64 29.1677 1103.4 26.0507 1102.09 23.6213C1100.82 21.192 1097.94 20.3669 1095.7 21.7879L1079.39 32.0096L1090.93 36.4558Z" fill="#E84336"/>
<path d="M1098.07 51.7194C1099.68 51.7194 1101.24 50.8027 1102.13 49.1984C1103.4 46.769 1102.64 43.6979 1100.44 42.277L1084.04 32.0094C1081.8 30.6343 1078.97 31.4593 1077.66 33.8429C1076.39 36.2723 1077.15 39.3434 1079.35 40.7643L1095.7 51.0319C1096.47 51.4903 1097.27 51.7194 1098.07 51.7194Z" fill="#4282F2"/>
<path d="M1114.34 51.7196C1115.15 51.7196 1115.95 51.4904 1116.67 51.032L1133.07 40.7645L1121.66 36.2266L1112.02 42.2313C1109.78 43.6064 1109.02 46.7233 1110.33 49.1527C1111.17 50.8028 1112.74 51.7196 1114.34 51.7196Z" fill="#F9BA08"/>
<path d="M1130.75 41.4519C1132.35 41.4519 1133.92 40.5352 1134.8 38.9309C1136.07 36.5015 1135.31 33.4304 1133.11 32.0094L1116.71 21.7877C1114.47 20.4126 1111.64 21.2377 1110.33 23.6212C1109.06 26.0506 1109.82 29.1217 1112.02 30.5426L1128.42 40.7644C1129.14 41.2227 1129.94 41.4519 1130.75 41.4519Z" fill="#00A150"/>
</g>
<g clip-path="url(#clip3_434_530)">
<path d="M1378.93 34.4558L1388.4 28.5428C1390.64 27.1677 1391.4 24.0507 1390.09 21.6213C1388.82 19.192 1385.94 18.3669 1383.7 19.7879L1367.39 30.0096L1378.93 34.4558Z" fill="#E84336"/>
<path d="M1386.07 49.7194C1387.68 49.7194 1389.24 48.8027 1390.13 47.1984C1391.4 44.769 1390.64 41.6979 1388.44 40.277L1372.04 30.0094C1369.8 28.6343 1366.97 29.4593 1365.66 31.8429C1364.39 34.2723 1365.15 37.3434 1367.35 38.7643L1383.7 49.0319C1384.47 49.4903 1385.27 49.7194 1386.07 49.7194Z" fill="#4282F2"/>
<path d="M1402.34 49.7196C1403.15 49.7196 1403.95 49.4904 1404.67 49.032L1421.07 38.7645L1409.66 34.2266L1400.02 40.2313C1397.78 41.6064 1397.02 44.7233 1398.33 47.1527C1399.17 48.8028 1400.74 49.7196 1402.34 49.7196Z" fill="#F9BA08"/>
<path d="M1418.75 39.4519C1420.35 39.4519 1421.92 38.5352 1422.8 36.9309C1424.07 34.5015 1423.31 31.4304 1421.11 30.0094L1404.71 19.7877C1402.47 18.4126 1399.64 19.2377 1398.33 21.6212C1397.06 24.0506 1397.82 27.1217 1400.02 28.5426L1416.42 38.7644C1417.14 39.2227 1417.94 39.4519 1418.75 39.4519Z" fill="#00A150"/>
</g>
<path fill-rule="evenodd" clip-rule="evenodd" d="M1344 20H1152V50H1168V63H1324V50H1344V20ZM1324 50V29H1168V50H1324Z" fill="#D9D9D9"/>
<g clip-path="url(#clip4_434_530)">
<path d="M1666.93 32.4558L1676.4 26.5428C1678.64 25.1677 1679.4 22.0507 1678.09 19.6213C1676.82 17.192 1673.94 16.3669 1671.7 17.7879L1655.39 28.0096L1666.93 32.4558Z" fill="#E84336"/>
<path d="M1674.07 47.7194C1675.68 47.7194 1677.24 46.8027 1678.13 45.1984C1679.4 42.769 1678.64 39.6979 1676.44 38.277L1660.04 28.0094C1657.8 26.6343 1654.97 27.4593 1653.66 29.8429C1652.39 32.2723 1653.15 35.3434 1655.35 36.7643L1671.7 47.0319C1672.47 47.4903 1673.27 47.7194 1674.07 47.7194Z" fill="#4282F2"/>
<path d="M1690.34 47.7196C1691.15 47.7196 1691.95 47.4904 1692.67 47.032L1709.07 36.7645L1697.66 32.2266L1688.02 38.2313C1685.78 39.6064 1685.02 42.7233 1686.33 45.1527C1687.17 46.8028 1688.74 47.7196 1690.34 47.7196Z" fill="#F9BA08"/>
<path d="M1706.75 37.4519C1708.35 37.4519 1709.92 36.5352 1710.8 34.9309C1712.07 32.5015 1711.31 29.4304 1709.11 28.0094L1692.71 17.7877C1690.47 16.4126 1687.64 17.2377 1686.33 19.6212C1685.06 22.0506 1685.82 25.1217 1688.02 26.5426L1704.42 36.7644C1705.14 37.2227 1705.94 37.4519 1706.75 37.4519Z" fill="#00A150"/>
</g>
<path fill-rule="evenodd" clip-rule="evenodd" d="M1632 18H1440V48H1456V61H1612V48H1632V18ZM1612 48V27H1456V48H1612Z" fill="#D9D9D9"/>
<g clip-path="url(#clip5_434_530)">
<path d="M226.928 47.4558L236.396 41.5428C238.636 40.1677 239.397 37.0507 238.087 34.6213C236.819 32.192 233.945 31.3669 231.704 32.7879L215.388 43.0096L226.928 47.4558Z" fill="#E84336"/>
<path d="M234.071 62.7194C235.677 62.7194 237.241 61.8027 238.129 60.1984C239.397 57.769 238.636 54.6979 236.438 53.277L220.038 43.0094C217.798 41.6343 214.966 42.4593 213.655 44.8429C212.387 47.2723 213.148 50.3434 215.346 51.7643L231.704 62.0319C232.465 62.4903 233.268 62.7194 234.071 62.7194Z" fill="#4282F2"/>
<path d="M250.345 62.7196C251.148 62.7196 251.951 62.4904 252.67 62.032L269.07 51.7645L257.657 47.2266L248.02 53.2313C245.78 54.6064 245.019 57.7233 246.329 60.1527C247.175 61.8028 248.739 62.7196 250.345 62.7196Z" fill="#F9BA08"/>
<path d="M266.745 52.4519C268.351 52.4519 269.915 51.5352 270.803 49.9309C272.071 47.5015 271.31 44.4304 269.112 43.0094L252.712 32.7877C250.472 31.4126 247.639 32.2377 246.329 34.6212C245.061 37.0506 245.822 40.1217 248.02 41.5426L264.42 51.7644C265.139 52.2227 265.942 52.4519 266.745 52.4519Z" fill="#00A150"/>
</g>
<path fill-rule="evenodd" clip-rule="evenodd" d="M192 33H0V63H16V76H172V63H192V33ZM172 63V42H16V63H172Z" fill="#D9D9D9"/>
<path fill-rule="evenodd" clip-rule="evenodd" d="M1930 11H1738V41H1754V54H1910V41H1930V11ZM1910 41V20H1754V41H1910Z" fill="#D9D9D9"/>
<path d="M876.376 68V22.304H884.952V61.088H902.552V68H876.376ZM922.996 32.672C927.177 32.672 930.377 33.6533 932.596 35.616C934.815 37.536 935.924 40.5653 935.924 44.704V68H929.972L928.308 63.2H928.052C927.113 64.4373 926.153 65.4827 925.172 66.336C924.191 67.1467 923.06 67.7227 921.78 68.064C920.5 68.448 918.964 68.64 917.172 68.64C915.252 68.64 913.524 68.256 911.988 67.488C910.452 66.72 909.236 65.5467 908.34 63.968C907.444 62.3467 906.996 60.32 906.996 57.888C906.996 54.304 908.233 51.616 910.708 49.824C913.183 47.9893 916.895 46.9867 921.844 46.816L927.412 46.624V44.896C927.412 42.6773 926.943 41.0987 926.004 40.16C925.065 39.2213 923.785 38.752 922.164 38.752C920.628 38.752 919.071 39.008 917.492 39.52C915.956 40.032 914.441 40.6293 912.948 41.312L910.324 35.68C912.073 34.784 914.015 34.0587 916.148 33.504C918.281 32.9493 920.564 32.672 922.996 32.672ZM923.828 51.744C920.799 51.872 918.687 52.4907 917.492 53.6C916.297 54.6667 915.7 56.1173 915.7 57.952C915.7 59.5733 916.105 60.7467 916.916 61.472C917.769 62.1973 918.879 62.56 920.244 62.56C922.249 62.56 923.956 61.8987 925.364 60.576C926.772 59.2107 927.476 57.2053 927.476 54.56V51.616L923.828 51.744ZM958.489 62.176C959.427 62.176 960.323 62.0907 961.177 61.92C962.073 61.7067 962.905 61.472 963.673 61.216V67.232C962.777 67.616 961.689 67.936 960.409 68.192C959.129 68.4907 957.699 68.64 956.121 68.64C954.158 68.64 952.409 68.32 950.873 67.68C949.337 66.9973 948.121 65.8453 947.225 64.224C946.371 62.6027 945.945 60.3413 945.945 57.44V39.392H941.593V35.872L946.457 33.056L949.017 25.696H954.393V33.312H963.353V39.392H954.393V57.376C954.393 58.9973 954.755 60.2133 955.481 61.024C956.249 61.792 957.251 62.176 958.489 62.176ZM983.615 32.672C986.602 32.672 989.162 33.312 991.295 34.592C993.471 35.8293 995.156 37.6213 996.351 39.968C997.546 42.272 998.143 45.088 998.143 48.416V52.512H976.895C976.98 55.6693 977.748 58.1227 979.199 59.872C980.692 61.5787 982.783 62.432 985.471 62.432C987.604 62.432 989.503 62.2187 991.167 61.792C992.831 61.3227 994.559 60.6613 996.351 59.808V66.272C994.73 67.0827 993.044 67.68 991.295 68.064C989.546 68.448 987.391 68.64 984.831 68.64C981.588 68.64 978.708 68 976.191 66.72C973.716 65.3973 971.775 63.4133 970.367 60.768C968.959 58.1227 968.255 54.8373 968.255 50.912C968.255 46.944 968.895 43.616 970.175 40.928C971.455 38.1973 973.247 36.1493 975.551 34.784C977.898 33.376 980.586 32.672 983.615 32.672ZM983.743 38.624C981.823 38.624 980.266 39.328 979.071 40.736C977.919 42.1013 977.236 44.1493 977.023 46.88H990.079C990.079 45.2587 989.844 43.8293 989.375 42.592C988.906 41.3547 988.202 40.3947 987.263 39.712C986.367 38.9867 985.194 38.624 983.743 38.624ZM1028.27 57.952C1028.27 60.256 1027.76 62.2187 1026.73 63.84C1025.71 65.4187 1024.19 66.6133 1022.19 67.424C1020.18 68.2347 1017.67 68.64 1014.64 68.64C1012.33 68.64 1010.33 68.4693 1008.62 68.128C1006.91 67.7867 1005.27 67.2533 1003.69 66.528V59.68C1005.4 60.4907 1007.23 61.1733 1009.2 61.728C1011.2 62.2827 1013.02 62.56 1014.64 62.56C1016.56 62.56 1017.94 62.2187 1018.8 61.536C1019.65 60.8533 1020.08 59.936 1020.08 58.784C1020.08 58.1013 1019.88 57.4827 1019.5 56.928C1019.16 56.3733 1018.43 55.7973 1017.32 55.2C1016.26 54.56 1014.7 53.7707 1012.65 52.832C1010.65 51.936 1008.98 51.04 1007.66 50.144C1006.34 49.248 1005.34 48.1813 1004.65 46.944C1003.97 45.664 1003.63 44.064 1003.63 42.144C1003.63 39.0293 1004.8 36.6827 1007.15 35.104C1009.54 33.4827 1012.65 32.672 1016.49 32.672C1018.58 32.672 1020.52 32.8853 1022.32 33.312C1024.15 33.696 1025.99 34.336 1027.82 35.232L1025.32 41.184C1024.3 40.7147 1023.26 40.3093 1022.19 39.968C1021.16 39.584 1020.16 39.2853 1019.18 39.072C1018.24 38.8587 1017.3 38.752 1016.36 38.752C1014.87 38.752 1013.74 39.0293 1012.97 39.584C1012.2 40.096 1011.82 40.8427 1011.82 41.824C1011.82 42.5067 1012.01 43.1253 1012.4 43.68C1012.78 44.192 1013.51 44.7253 1014.57 45.28C1015.64 45.8347 1017.15 46.5387 1019.12 47.392C1021.08 48.16 1022.74 48.992 1024.11 49.888C1025.47 50.7413 1026.5 51.808 1027.18 53.088C1027.91 54.368 1028.27 55.9893 1028.27 57.952ZM1048.93 62.176C1049.86 62.176 1050.76 62.0907 1051.61 61.92C1052.51 61.7067 1053.34 61.472 1054.11 61.216V67.232C1053.21 67.616 1052.13 67.936 1050.85 68.192C1049.57 68.4907 1048.14 68.64 1046.56 68.64C1044.6 68.64 1042.85 68.32 1041.31 67.68C1039.77 66.9973 1038.56 65.8453 1037.66 64.224C1036.81 62.6027 1036.38 60.3413 1036.38 57.44V39.392H1032.03V35.872L1036.89 33.056L1039.45 25.696H1044.83V33.312H1053.79V39.392H1044.83V57.376C1044.83 58.9973 1045.19 60.2133 1045.92 61.024C1046.69 61.792 1047.69 62.176 1048.93 62.176Z" fill="white"/>
<defs>
<clipPath id="clip0_434_530">
<rect width="60" height="33" fill="white" transform="translate(500 24)"/>
</clipPath>
<clipPath id="clip1_434_530">
<rect width="60" height="33" fill="white" transform="translate(788 22)"/>
</clipPath>
<clipPath id="clip2_434_530">
<rect width="60" height="33" fill="white" transform="translate(1076 20)"/>
</clipPath>
<clipPath id="clip3_434_530">
<rect width="60" height="33" fill="white" transform="translate(1364 18)"/>
</clipPath>
<clipPath id="clip4_434_530">
<rect width="60" height="33" fill="white" transform="translate(1652 16)"/>
</clipPath>
<clipPath id="clip5_434_530">
<rect width="60" height="33" fill="white" transform="translate(212 31)"/>
</clipPath>
</defs>
</svg>
