<svg width="556" height="15" viewBox="0 0 556 15" fill="none" xmlns="http://www.w3.org/2000/svg">
<path d="M0.670538 5.46015C0.648528 8.40558 3.01843 10.8112 5.96387 10.8332C8.90931 10.8552 11.3149 8.48529 11.3369 5.53985C11.3589 2.59442 8.98901 0.188826 6.04358 0.166815C3.09814 0.144805 0.692549 2.51471 0.670538 5.46015ZM544.669 9.5253C544.647 12.4707 547.017 14.8763 549.963 14.8983C552.908 14.9204 555.314 12.5504 555.336 9.60501C555.358 6.65957 552.988 4.25398 550.043 4.23197C547.097 4.20996 544.691 6.57987 544.669 9.5253ZM5.99625 6.49997L549.995 10.5651L550.01 8.56518L6.0112 4.50003L5.99625 6.49997Z" fill="white"/>
</svg>
