<svg width="1923" height="78" viewBox="0 0 1923 78" fill="none" xmlns="http://www.w3.org/2000/svg">
<g clip-path="url(#clip0_434_266)">
<path d="M514.928 42.4558L524.396 36.5428C526.636 35.1677 527.397 32.0507 526.087 29.6213C524.819 27.192 521.945 26.3669 519.704 27.7879L503.388 38.0096L514.928 42.4558Z" fill="#E84336"/>
<path d="M522.071 57.7194C523.677 57.7194 525.241 56.8027 526.129 55.1984C527.397 52.769 526.636 49.6979 524.438 48.277L508.038 38.0094C505.798 36.6343 502.966 37.4593 501.655 39.8429C500.387 42.2723 501.148 45.3434 503.346 46.7643L519.704 57.0319C520.465 57.4903 521.268 57.7194 522.071 57.7194Z" fill="#4282F2"/>
<path d="M538.345 57.7196C539.148 57.7196 539.951 57.4904 540.67 57.032L557.07 46.7645L545.657 42.2266L536.02 48.2313C533.78 49.6064 533.019 52.7233 534.329 55.1527C535.175 56.8028 536.739 57.7196 538.345 57.7196Z" fill="#F9BA08"/>
<path d="M554.745 47.4519C556.351 47.4519 557.915 46.5352 558.803 44.9309C560.071 42.5015 559.31 39.4304 557.112 38.0094L540.712 27.7877C538.472 26.4126 535.639 27.2377 534.329 29.6212C533.061 32.0506 533.822 35.1217 536.02 36.5426L552.42 46.7644C553.139 47.2227 553.942 47.4519 554.745 47.4519Z" fill="#00A150"/>
</g>
<path fill-rule="evenodd" clip-rule="evenodd" d="M480 28H288V58H304V71H460V58H480V28ZM460 58V37H304V58H460Z" fill="#D9D9D9"/>
<g clip-path="url(#clip1_434_266)">
<path d="M802.928 40.4558L812.396 34.5428C814.636 33.1677 815.397 30.0507 814.087 27.6213C812.819 25.192 809.945 24.3669 807.704 25.7879L791.388 36.0096L802.928 40.4558Z" fill="#E84336"/>
<path d="M810.071 55.7194C811.677 55.7194 813.241 54.8027 814.129 53.1984C815.397 50.769 814.636 47.6979 812.438 46.277L796.038 36.0094C793.798 34.6343 790.966 35.4593 789.655 37.8429C788.387 40.2723 789.148 43.3434 791.346 44.7643L807.704 55.0319C808.465 55.4903 809.268 55.7194 810.071 55.7194Z" fill="#4282F2"/>
<path d="M826.345 55.7196C827.148 55.7196 827.951 55.4904 828.67 55.032L845.07 44.7645L833.657 40.2266L824.02 46.2313C821.78 47.6064 821.019 50.7233 822.329 53.1527C823.175 54.8028 824.739 55.7196 826.345 55.7196Z" fill="#F9BA08"/>
<path d="M842.745 45.4519C844.351 45.4519 845.915 44.5352 846.803 42.9309C848.071 40.5015 847.31 37.4304 845.112 36.0094L828.712 25.7877C826.472 24.4126 823.639 25.2377 822.329 27.6212C821.061 30.0506 821.822 33.1217 824.02 34.5426L840.42 44.7644C841.139 45.2227 841.942 45.4519 842.745 45.4519Z" fill="#00A150"/>
</g>
<path fill-rule="evenodd" clip-rule="evenodd" d="M768 26H576V56H592V69H748V56H768V26ZM748 56V35H592V56H748Z" fill="#D9D9D9"/>
<g clip-path="url(#clip2_434_266)">
<path d="M1090.93 38.4558L1100.4 32.5428C1102.64 31.1677 1103.4 28.0507 1102.09 25.6213C1100.82 23.192 1097.94 22.3669 1095.7 23.7879L1079.39 34.0096L1090.93 38.4558Z" fill="#E84336"/>
<path d="M1098.07 53.7194C1099.68 53.7194 1101.24 52.8027 1102.13 51.1984C1103.4 48.769 1102.64 45.6979 1100.44 44.277L1084.04 34.0094C1081.8 32.6343 1078.97 33.4593 1077.66 35.8429C1076.39 38.2723 1077.15 41.3434 1079.35 42.7643L1095.7 53.0319C1096.47 53.4903 1097.27 53.7194 1098.07 53.7194Z" fill="#4282F2"/>
<path d="M1114.34 53.7196C1115.15 53.7196 1115.95 53.4904 1116.67 53.032L1133.07 42.7645L1121.66 38.2266L1112.02 44.2313C1109.78 45.6064 1109.02 48.7233 1110.33 51.1527C1111.17 52.8028 1112.74 53.7196 1114.34 53.7196Z" fill="#F9BA08"/>
<path d="M1130.75 43.4519C1132.35 43.4519 1133.92 42.5352 1134.8 40.9309C1136.07 38.5015 1135.31 35.4304 1133.11 34.0094L1116.71 23.7877C1114.47 22.4126 1111.64 23.2377 1110.33 25.6212C1109.06 28.0506 1109.82 31.1217 1112.02 32.5426L1128.42 42.7644C1129.14 43.2227 1129.94 43.4519 1130.75 43.4519Z" fill="#00A150"/>
</g>
<g clip-path="url(#clip3_434_266)">
<path d="M1378.93 36.4558L1388.4 30.5428C1390.64 29.1677 1391.4 26.0507 1390.09 23.6213C1388.82 21.192 1385.94 20.3669 1383.7 21.7879L1367.39 32.0096L1378.93 36.4558Z" fill="#E84336"/>
<path d="M1386.07 51.7194C1387.68 51.7194 1389.24 50.8027 1390.13 49.1984C1391.4 46.769 1390.64 43.6979 1388.44 42.277L1372.04 32.0094C1369.8 30.6343 1366.97 31.4593 1365.66 33.8429C1364.39 36.2723 1365.15 39.3434 1367.35 40.7643L1383.7 51.0319C1384.47 51.4903 1385.27 51.7194 1386.07 51.7194Z" fill="#4282F2"/>
<path d="M1402.34 51.7196C1403.15 51.7196 1403.95 51.4904 1404.67 51.032L1421.07 40.7645L1409.66 36.2266L1400.02 42.2313C1397.78 43.6064 1397.02 46.7233 1398.33 49.1527C1399.17 50.8028 1400.74 51.7196 1402.34 51.7196Z" fill="#F9BA08"/>
<path d="M1418.75 41.4519C1420.35 41.4519 1421.92 40.5352 1422.8 38.9309C1424.07 36.5015 1423.31 33.4304 1421.11 32.0094L1404.71 21.7877C1402.47 20.4126 1399.64 21.2377 1398.33 23.6212C1397.06 26.0506 1397.82 29.1217 1400.02 30.5426L1416.42 40.7644C1417.14 41.2227 1417.94 41.4519 1418.75 41.4519Z" fill="#00A150"/>
</g>
<path fill-rule="evenodd" clip-rule="evenodd" d="M1344 22H1152V52H1168V65H1324V52H1344V22ZM1324 52V31H1168V52H1324Z" fill="#D9D9D9"/>
<g clip-path="url(#clip4_434_266)">
<path d="M1666.93 34.4558L1676.4 28.5428C1678.64 27.1677 1679.4 24.0507 1678.09 21.6213C1676.82 19.192 1673.94 18.3669 1671.7 19.7879L1655.39 30.0096L1666.93 34.4558Z" fill="#E84336"/>
<path d="M1674.07 49.7194C1675.68 49.7194 1677.24 48.8027 1678.13 47.1984C1679.4 44.769 1678.64 41.6979 1676.44 40.277L1660.04 30.0094C1657.8 28.6343 1654.97 29.4593 1653.66 31.8429C1652.39 34.2723 1653.15 37.3434 1655.35 38.7643L1671.7 49.0319C1672.47 49.4903 1673.27 49.7194 1674.07 49.7194Z" fill="#4282F2"/>
<path d="M1690.34 49.7196C1691.15 49.7196 1691.95 49.4904 1692.67 49.032L1709.07 38.7645L1697.66 34.2266L1688.02 40.2313C1685.78 41.6064 1685.02 44.7233 1686.33 47.1527C1687.17 48.8028 1688.74 49.7196 1690.34 49.7196Z" fill="#F9BA08"/>
<path d="M1706.75 39.4519C1708.35 39.4519 1709.92 38.5352 1710.8 36.9309C1712.07 34.5015 1711.31 31.4304 1709.11 30.0094L1692.71 19.7877C1690.47 18.4126 1687.64 19.2377 1686.33 21.6212C1685.06 24.0506 1685.82 27.1217 1688.02 28.5426L1704.42 38.7644C1705.14 39.2227 1705.94 39.4519 1706.75 39.4519Z" fill="#00A150"/>
</g>
<path fill-rule="evenodd" clip-rule="evenodd" d="M1632 20H1440V50H1456V63H1612V50H1632V20ZM1612 50V29H1456V50H1612Z" fill="#D9D9D9"/>
<g clip-path="url(#clip5_434_266)">
<path d="M226.928 49.4558L236.396 43.5428C238.636 42.1677 239.397 39.0507 238.087 36.6213C236.819 34.192 233.945 33.3669 231.704 34.7879L215.388 45.0096L226.928 49.4558Z" fill="#E84336"/>
<path d="M234.071 64.7194C235.677 64.7194 237.241 63.8027 238.129 62.1984C239.397 59.769 238.636 56.6979 236.438 55.277L220.038 45.0094C217.798 43.6343 214.966 44.4593 213.655 46.8429C212.387 49.2723 213.148 52.3434 215.346 53.7643L231.704 64.0319C232.465 64.4903 233.268 64.7194 234.071 64.7194Z" fill="#4282F2"/>
<path d="M250.345 64.7196C251.148 64.7196 251.951 64.4904 252.67 64.032L269.07 53.7645L257.657 49.2266L248.02 55.2313C245.78 56.6064 245.019 59.7233 246.329 62.1527C247.175 63.8028 248.739 64.7196 250.345 64.7196Z" fill="#F9BA08"/>
<path d="M266.745 54.4519C268.351 54.4519 269.915 53.5352 270.803 51.9309C272.071 49.5015 271.31 46.4304 269.112 45.0094L252.712 34.7877C250.472 33.4126 247.639 34.2377 246.329 36.6212C245.061 39.0506 245.822 42.1217 248.02 43.5426L264.42 53.7644C265.139 54.2227 265.942 54.4519 266.745 54.4519Z" fill="#00A150"/>
</g>
<path fill-rule="evenodd" clip-rule="evenodd" d="M192 35H0V65H16V78H172V65H192V35ZM172 65V44H16V65H172Z" fill="#D9D9D9"/>
<path fill-rule="evenodd" clip-rule="evenodd" d="M1923 20H1731V50H1747V63H1903V50H1923V20ZM1903 50V29H1747V50H1903Z" fill="#D9D9D9"/>
<path d="M913.56 22.304C919.107 22.304 923.181 23.5413 925.784 26.016C928.387 28.4907 929.688 31.904 929.688 36.256C929.688 38.2187 929.411 40.096 928.856 41.888C928.301 43.6373 927.363 45.216 926.04 46.624C924.76 48.032 923.053 49.1413 920.92 49.952C918.787 50.7627 916.163 51.168 913.048 51.168H908.952V68H900.376V22.304H913.56ZM913.24 29.088H908.952V44.384H912.152C914.029 44.384 915.629 44.128 916.952 43.616C918.275 43.0613 919.277 42.208 919.96 41.056C920.685 39.904 921.048 38.4107 921.048 36.576C921.048 34.0587 920.408 32.1813 919.128 30.944C917.848 29.7067 915.885 29.088 913.24 29.088ZM961.31 68L957.79 55.904H942.174L938.654 68H929.438L944.798 22.112H955.102L970.526 68H961.31ZM952.094 37.088C951.923 36.4053 951.688 35.5947 951.39 34.656C951.134 33.6747 950.878 32.672 950.622 31.648C950.408 30.624 950.195 29.664 949.982 28.768C949.811 29.792 949.598 30.816 949.342 31.84C949.086 32.8213 948.83 33.76 948.574 34.656C948.36 35.552 948.147 36.3627 947.934 37.088L944.35 48.864H955.742L952.094 37.088ZM1001.67 55.52C1001.67 58.208 1001.05 60.5333 999.812 62.496C998.617 64.4587 996.825 65.9733 994.436 67.04C992.089 68.1067 989.188 68.64 985.732 68.64C984.025 68.64 982.447 68.5333 980.996 68.32C979.545 68.1493 978.18 67.872 976.9 67.488C975.663 67.104 974.468 66.6347 973.316 66.08V58.4C975.236 59.2533 977.305 60.0427 979.524 60.768C981.785 61.4507 983.983 61.792 986.116 61.792C987.737 61.792 989.06 61.5573 990.084 61.088C991.108 60.576 991.855 59.8933 992.324 59.04C992.836 58.144 993.092 57.12 993.092 55.968C993.092 54.688 992.772 53.6 992.132 52.704C991.535 51.808 990.596 50.976 989.316 50.208C988.036 49.44 986.372 48.6507 984.324 47.84C982.873 47.2 981.487 46.5173 980.164 45.792C978.884 45.024 977.753 44.1067 976.772 43.04C975.833 41.9733 975.087 40.7147 974.532 39.264C974.02 37.8133 973.764 36.1067 973.764 34.144C973.764 31.5413 974.383 29.3013 975.62 27.424C976.857 25.5467 978.585 24.1173 980.804 23.136C983.023 22.1547 985.604 21.664 988.548 21.664C991.023 21.664 993.284 21.92 995.332 22.432C997.423 22.944 999.385 23.6693 1001.22 24.608L998.532 31.2C996.783 30.3893 995.055 29.7493 993.348 29.28C991.684 28.8107 989.999 28.576 988.292 28.576C986.969 28.576 985.86 28.8107 984.964 29.28C984.068 29.7067 983.385 30.3253 982.916 31.136C982.489 31.9467 982.276 32.8853 982.276 33.952C982.276 35.1893 982.575 36.2347 983.172 37.088C983.769 37.9413 984.708 38.752 985.988 39.52C987.268 40.2453 988.932 41.0987 990.98 42.08C993.241 43.104 995.161 44.192 996.74 45.344C998.361 46.496 999.577 47.8827 1000.39 49.504C1001.24 51.1253 1001.67 53.1307 1001.67 55.52ZM1025.69 68H1017.05V29.216H1005.15V22.304H1037.53V29.216H1025.69V68Z" fill="white"/>
<defs>
<clipPath id="clip0_434_266">
<rect width="60" height="33" fill="white" transform="translate(500 26)"/>
</clipPath>
<clipPath id="clip1_434_266">
<rect width="60" height="33" fill="white" transform="translate(788 24)"/>
</clipPath>
<clipPath id="clip2_434_266">
<rect width="60" height="33" fill="white" transform="translate(1076 22)"/>
</clipPath>
<clipPath id="clip3_434_266">
<rect width="60" height="33" fill="white" transform="translate(1364 20)"/>
</clipPath>
<clipPath id="clip4_434_266">
<rect width="60" height="33" fill="white" transform="translate(1652 18)"/>
</clipPath>
<clipPath id="clip5_434_266">
<rect width="60" height="33" fill="white" transform="translate(212 33)"/>
</clipPath>
</defs>
</svg>
