<svg width="1122" height="402" viewBox="0 0 1122 402" fill="none" xmlns="http://www.w3.org/2000/svg">
<path d="M756.46 401L1121 0.999988" stroke="#B3B3B3"/>
<path d="M700.615 401L932.858 0.999997" stroke="#B3B3B3"/>
<path d="M644.769 401L775.027 1.00001" stroke="#B3B3B3"/>
<path d="M588.923 401L630.996 0.999984" stroke="#B3B3B3"/>
<path d="M533.077 401L491.004 0.999984" stroke="#B3B3B3"/>
<path d="M477.231 401L346.973 1.00001" stroke="#B3B3B3"/>
<path d="M421.385 401L189.142 0.999997" stroke="#B3B3B3"/>
<path d="M365.54 401L1.00003 0.999988" stroke="#B3B3B3"/>
<path d="M1121 1L1.00001 1" stroke="#B3B3B3"/>
<path d="M1068.92 58.1429L53.077 58.1429" stroke="#B3B3B3"/>
<path d="M1016.85 115.286L105.154 115.286" stroke="#B3B3B3"/>
<path d="M964.769 172.429L157.231 172.429" stroke="#B3B3B3"/>
<path d="M912.692 229.571L209.308 229.571" stroke="#B3B3B3"/>
<path d="M860.615 286.714L261.385 286.714" stroke="#B3B3B3"/>
<path d="M808.537 343.857L313.462 343.857" stroke="#B3B3B3"/>
<path d="M756.46 401L365.54 401" stroke="#B3B3B3"/>
</svg>
