<svg width="725" height="402" viewBox="0 0 725 402" fill="none" xmlns="http://www.w3.org/2000/svg">
<path d="M162.611 1L1.00011 401" stroke="#B3B3B3"/>
<path d="M212.611 1L94.1252 401" stroke="#B3B3B3"/>
<path d="M262.611 1L184.858 401" stroke="#B3B3B3"/>
<path d="M312.611 1L274.095 401" stroke="#B3B3B3"/>
<path d="M362.611 1V401" stroke="#B3B3B3"/>
<path d="M412.611 1L451.126 401" stroke="#B3B3B3"/>
<path d="M462.611 1L540.363 401" stroke="#B3B3B3"/>
<path d="M512.611 1L631.096 401" stroke="#B3B3B3"/>
<path d="M562.61 1L724.221 401" stroke="#B3B3B3"/>
<path d="M1 401H724.221" stroke="#B3B3B3"/>
<path d="M18.9568 356.556H706.264" stroke="#B3B3B3"/>
<path d="M36.9133 312.111H688.307" stroke="#B3B3B3"/>
<path d="M54.8701 267.667H670.351" stroke="#B3B3B3"/>
<path d="M72.8269 223.222H652.394" stroke="#B3B3B3"/>
<path d="M90.7837 178.778H634.437" stroke="#B3B3B3"/>
<path d="M108.74 134.333H616.481" stroke="#B3B3B3"/>
<path d="M126.697 89.8889H598.524" stroke="#B3B3B3"/>
<path d="M144.654 45.4445H580.567" stroke="#B3B3B3"/>
<path d="M162.611 1H562.611" stroke="#B3B3B3"/>
</svg>
