<svg width="1122" height="1002" viewBox="0 0 1122 1002" fill="none" xmlns="http://www.w3.org/2000/svg">
<path d="M1121 1.00015H1.00012V1001H1121V1.00015Z" stroke="#B3B3B3"/>
<path d="M1048.48 65.7502H73.5201V936.25H1048.48V65.7502Z" stroke="#B3B3B3"/>
<path d="M975.96 130.5H146.04V871.5H975.96V130.5Z" stroke="#B3B3B3"/>
<path d="M903.44 195.25H218.56V806.75H903.44V195.25Z" stroke="#B3B3B3"/>
<path d="M830.92 260H291.08V742H830.92V260Z" stroke="#B3B3B3"/>
<path d="M758.4 324.75H363.6V677.25H758.4V324.75Z" stroke="#B3B3B3"/>
<path d="M685.88 389.5H436.12V612.5H685.88V389.5Z" stroke="#B3B3B3"/>
<path d="M436.12 612.5L1.00009 1001" stroke="#B3B3B3"/>
<path d="M471.8 612.5L198.396 1001" stroke="#B3B3B3"/>
<path d="M507.48 612.5L355.225 1001" stroke="#B3B3B3"/>
<path d="M543.16 612.5L494.134 1001" stroke="#B3B3B3"/>
<path d="M578.84 612.5L627.866 1001" stroke="#B3B3B3"/>
<path d="M614.52 612.5L766.775 1001" stroke="#B3B3B3"/>
<path d="M650.2 612.5L923.604 1001" stroke="#B3B3B3"/>
<path d="M685.88 612.5L1121 1001" stroke="#B3B3B3"/>
<path d="M436.12 389.5L1.00006 1.00011" stroke="#B3B3B3"/>
<path d="M436.12 421.357L1.00015 177.247" stroke="#B3B3B3"/>
<path d="M436.12 453.214L1.00016 317.272" stroke="#B3B3B3"/>
<path d="M436.12 485.072L1.00014 441.298" stroke="#B3B3B3"/>
<path d="M436.12 516.929L1.00014 560.702" stroke="#B3B3B3"/>
<path d="M436.12 548.786L1.00016 684.728" stroke="#B3B3B3"/>
<path d="M436.12 580.643L1.00015 824.754" stroke="#B3B3B3"/>
<path d="M436.12 612.5L1.00006 1001" stroke="#B3B3B3"/>
<path d="M685.88 389.5L1121 1.00008" stroke="#B3B3B3"/>
<path d="M650.2 389.5L923.604 1.00015" stroke="#B3B3B3"/>
<path d="M614.52 389.5L766.775 1.00016" stroke="#B3B3B3"/>
<path d="M578.84 389.5L627.866 1.00013" stroke="#B3B3B3"/>
<path d="M543.16 389.5L494.134 1.00013" stroke="#B3B3B3"/>
<path d="M507.48 389.5L355.225 1.00016" stroke="#B3B3B3"/>
<path d="M471.8 389.5L198.396 1.00015" stroke="#B3B3B3"/>
<path d="M436.12 389.5L0.999965 1.00008" stroke="#B3B3B3"/>
<path d="M685.88 612.5L1121 1001" stroke="#B3B3B3"/>
<path d="M685.88 580.643L1121 824.754" stroke="#B3B3B3"/>
<path d="M685.88 548.786L1121 684.728" stroke="#B3B3B3"/>
<path d="M685.88 516.929L1121 560.702" stroke="#B3B3B3"/>
<path d="M685.88 485.071L1121 441.298" stroke="#B3B3B3"/>
<path d="M685.88 453.214L1121 317.272" stroke="#B3B3B3"/>
<path d="M685.88 421.357L1121 177.246" stroke="#B3B3B3"/>
<path d="M685.88 389.5L1121 0.999991" stroke="#B3B3B3"/>
</svg>
